<svg width="62" height="26" viewBox="0 0 62 26" fill="none" xmlns="http://www.w3.org/2000/svg">
<g clip-path="url(#clip0_7326_581)">
<path d="M21.4608 15.9487C22.8136 10.3097 19.3389 4.64175 13.6999 3.28899C8.06092 1.93623 2.39298 5.41091 1.04021 11.0499C-0.312548 16.6889 3.16213 22.3569 8.80113 23.7096C14.4401 25.0624 20.1081 21.5877 21.4608 15.9487Z" fill="#101010"/>
<path d="M31.7939 7.54654C30.4728 7.54654 29.2733 8.06784 28.364 8.91199V7.77165H26.2373V21.0973H28.364V16.7729C29.2733 17.62 30.4728 18.1384 31.7939 18.1384C34.6255 18.1384 36.9239 15.7659 36.9239 12.8395C36.9239 9.91312 34.6284 7.54062 31.7939 7.54062V7.54654ZM31.4947 16.222C29.7649 16.222 28.364 14.7114 28.364 12.8484C28.364 10.9853 29.7649 9.47475 31.4947 9.47475C33.2245 9.47475 34.6255 10.9853 34.6255 12.8484C34.6255 14.7114 33.2245 16.222 31.4947 16.222Z" fill="#101010"/>
<path d="M46.2808 7.77461V8.72242C45.4011 7.98786 44.2815 7.54654 43.0612 7.54654C40.2296 7.54654 37.9312 9.91904 37.9312 12.8454C37.9312 15.7718 40.2266 18.1443 43.0612 18.1443C44.2815 18.1443 45.4011 17.703 46.2808 16.9684V17.9458H48.5644V7.77461H46.2808ZM43.3633 16.222C41.6335 16.222 40.2326 14.7114 40.2326 12.8484C40.2326 10.9853 41.6335 9.47475 43.3633 9.47475C45.0931 9.47475 46.4941 10.9853 46.4941 12.8484C46.4941 14.7114 45.0931 16.222 43.3633 16.222Z" fill="#101010"/>
<path d="M58.8038 7.7746L55.913 14.1842L52.6726 7.7746H50.2261L54.7075 16.8618L52.7881 21.124H55.2317L61.2474 7.7746H58.8038Z" fill="#101010"/>
<path d="M13.042 8.56247V13.891L9.33067 8.56247H6.35986V18.4375H9.45507V13.112L13.1308 18.4375H16.1401V8.56247H13.042Z" fill="#00DE5A"/>
</g>
<defs>
<clipPath id="clip0_7326_581">
<rect width="60.4972" height="21" fill="white" transform="translate(0.75 3)"/>
</clipPath>
</defs>
</svg>
