<svg width="25" height="25" viewBox="0 0 25 25" fill="none" xmlns="http://www.w3.org/2000/svg">
<path d="M12.5 25.001C19.4036 25.001 25 19.4045 25 12.501C25 5.59742 19.4036 0.000976562 12.5 0.000976562C5.59644 0.000976562 0 5.59742 0 12.501C0 19.4045 5.59644 25.001 12.5 25.001Z" fill="#F9F9F9"/>
<path d="M19.2324 10.2586C19.2324 9.15129 18.3339 8.25316 17.2266 8.25316C17.2266 8.25316 15.3952 8.07861 12.7795 8.07861C10.1637 8.07861 8.15782 8.25316 8.15782 8.25316C7.05048 8.25316 6.15195 9.15129 6.15195 10.2586C6.15195 10.2586 6.06488 11.3797 6.06488 12.7269C6.06488 14.0732 6.15195 15.1415 6.15195 15.1415C6.15195 16.2492 7.05048 17.1473 8.15782 17.1473C8.15782 17.1473 10.7248 17.3219 12.6489 17.3219C14.5721 17.3219 17.2266 17.1473 17.2266 17.1473C18.3339 17.1473 19.2324 16.2492 19.2324 15.1415C19.2324 15.1415 19.3195 14.0732 19.3195 12.7269C19.3195 11.3801 19.2324 10.2586 19.2324 10.2586ZM11.602 14.7057V10.6948L14.9159 12.6567L11.602 14.7057Z" fill="#A6AEB7"/>
</svg>
