<svg width="73" height="17" viewBox="0 0 73 17" fill="none" xmlns="http://www.w3.org/2000/svg">
<g clip-path="url(#clip0_7326_586)">
<path d="M67.5445 11.5462C66.7815 12.3698 65.7277 12.8543 64.4196 12.8543C63.1115 12.8543 62.0578 12.3698 61.2947 11.5462C60.5922 10.7589 60.1804 9.7536 60.1804 8.51817C60.1804 7.28274 60.568 6.26533 61.2705 5.49016C62.0336 4.66654 63.0994 4.18206 64.4196 4.18206C65.7398 4.18206 66.7815 4.66654 67.5445 5.49016C68.247 6.27744 68.6588 7.28274 68.6588 8.51817C68.6588 9.7536 68.2591 10.771 67.5445 11.5462ZM70.0881 2.72862C68.6346 1.33573 66.6482 0.512115 64.4196 0.512115C62.191 0.512115 60.2046 1.33573 58.7512 2.72862C57.2493 4.16995 56.4136 6.21688 56.4136 8.50606C56.4136 10.7952 57.2493 12.8422 58.7512 14.2835C60.2046 15.6764 62.191 16.5 64.4196 16.5C66.6482 16.5 68.6346 15.6764 70.0881 14.2835C71.59 12.8422 72.4257 10.7952 72.4257 8.50606C72.4257 6.21688 71.59 4.16995 70.0881 2.72862Z" fill="#FF2233"/>
<path fill-rule="evenodd" clip-rule="evenodd" d="M53.2279 11.0132L53.1552 11.1101C52.6465 11.74 52.0773 12.1881 51.4111 12.4667C50.8903 12.7089 50.2362 12.8543 49.5459 12.8543C48.2014 12.8543 47.0144 12.4061 46.2272 11.5583C45.5004 10.7952 45.1007 9.70514 45.1007 8.48183C45.1007 7.06472 45.67 5.88985 46.6147 5.10257C47.3778 4.47274 48.2741 4.10938 49.5459 4.10938C50.1515 4.10938 50.7449 4.2305 51.2658 4.43641C51.8835 4.67865 52.4164 5.06623 52.9493 5.59916L53.022 5.67184L55.7714 3.37055L55.6988 3.27365C54.9236 2.30469 53.991 1.60219 53.1189 1.20249C52.1015 0.742237 50.854 0.487885 49.4611 0.487885C47.293 0.487885 45.3793 1.20249 43.938 2.45003C42.2907 3.90348 41.3218 6.02309 41.3218 8.48183C41.3218 10.5409 42.0122 12.3819 43.2234 13.7748C44.701 15.4462 46.8933 16.4758 49.4611 16.4758C51.0962 16.4758 52.4043 16.1609 53.4823 15.5431C54.4512 14.9981 55.2385 14.2108 55.9289 13.2055L55.9895 13.1086L53.2037 11.0132H53.2279Z" fill="#FF2233"/>
<path fill-rule="evenodd" clip-rule="evenodd" d="M37.0586 0.899689L33.8247 7.27062L30.615 0.899689H26.291L31.9473 11.207V16.0761H35.7142V11.207L41.3705 0.899689H37.0586Z" fill="#FF2233"/>
<path d="M20.6469 4.38796L22.6454 9.72936H18.6726L20.6348 4.38796H20.6469ZM23.142 0.899689H18.1397L12.4834 16.0761H16.335L17.413 13.145H23.9293L25.0315 16.0761H28.8589L23.142 0.899689Z" fill="#FF2233"/>
<path d="M8.64364 8.3607C8.36506 8.49394 7.90481 8.63928 7.25076 8.63928H3.79883V4.27895H7.05696C7.61412 4.27895 8.14705 4.36373 8.46196 4.49696C8.89799 4.67864 9.2008 4.94511 9.39459 5.29636C9.56416 5.59916 9.64894 5.97463 9.64894 6.42278C9.64894 7.40385 9.3098 8.04579 8.63153 8.37281L8.64364 8.3607ZM12.1319 2.87395C11.5748 2.19568 10.8723 1.66275 10.0123 1.29939C9.34614 1.02081 8.32873 0.899689 7.55356 0.899689H0.25V16.0761H4.01684V11.9701H7.55356C8.47407 11.9701 9.60049 11.7642 10.3999 11.3766C11.49 10.8679 12.2894 9.9716 12.786 8.90574C13.1251 8.14269 13.3189 7.29484 13.3189 6.41067C13.3189 5.07834 12.895 3.84291 12.1319 2.87395Z" fill="#FF2233"/>
</g>
<defs>
<clipPath id="clip0_7326_586">
<rect width="72.1756" height="16" fill="white" transform="translate(0.25 0.5)"/>
</clipPath>
</defs>
</svg>
