<svg width="38" height="40" viewBox="0 0 38 40" fill="none" xmlns="http://www.w3.org/2000/svg">
<g clip-path="url(#clip0_7309_48)">
<path d="M22.0274 27.5595L25.3034 25.1276L29.6563 30.9914C29.816 31.2065 29.9318 31.451 29.997 31.7108C30.0622 31.9706 30.0756 32.2408 30.0364 32.5058C29.9972 32.7708 29.9062 33.0255 29.7686 33.2554C29.6309 33.4852 29.4494 33.6857 29.2343 33.8454C29.0192 34.005 28.7747 34.1208 28.5149 34.186C28.255 34.2512 27.9849 34.2646 27.7199 34.2254C27.4549 34.1862 27.2002 34.0952 26.9703 33.9576C26.7405 33.82 26.54 33.6384 26.3803 33.4233L22.0274 27.5595Z" fill="#64798A"/>
<path d="M8.85612 6.37957C7.28127 7.54653 6.0879 9.15437 5.42699 10.9997C4.76608 12.845 4.66731 14.8449 5.14319 16.7463C5.61906 18.6478 6.6482 20.3654 8.10041 21.6818C9.55262 22.9983 11.3626 23.8544 13.3015 24.142C15.2404 24.4296 17.221 24.1357 18.9928 23.2974C20.7646 22.4592 22.248 21.1142 23.2553 19.4328C24.2626 17.7513 24.7486 15.8089 24.6518 13.8512C24.5549 11.8935 23.8797 10.0085 22.7113 8.43462C21.9369 7.38948 20.964 6.5072 19.8484 5.83823C18.7328 5.16925 17.4963 4.72668 16.2096 4.53583C14.9229 4.34498 13.6111 4.40958 12.3494 4.72594C11.0876 5.04229 9.9006 5.60421 8.85612 6.37957ZM18.6246 19.5387C17.5946 20.3054 16.3603 20.7493 15.0779 20.8141C13.7955 20.8789 12.5227 20.5618 11.4206 19.9029C10.3185 19.244 9.43666 18.2729 8.88676 17.1126C8.33686 15.9522 8.1436 14.6548 8.33144 13.3846C8.51928 12.1144 9.07979 10.9284 9.94199 9.9769C10.8042 9.02539 11.9293 8.35108 13.175 8.03935C14.4206 7.72762 15.7307 7.79248 16.9395 8.22573C18.1482 8.65897 19.2013 9.44111 19.9653 10.4731C20.4725 11.1564 20.8402 11.9329 21.0473 12.7583C21.2544 13.5836 21.297 14.4417 21.1725 15.2835C21.048 16.1254 20.7589 16.9344 20.3218 17.6645C19.8846 18.3946 19.3079 19.0314 18.6246 19.5387Z" fill="#27A2DB"/>
<path d="M22.4623 22.0914L19.8952 23.997L21.8008 26.5642L24.368 24.6585L22.4623 22.0914Z" fill="#D5D6DB"/>
</g>
<defs>
<clipPath id="clip0_7309_48">
<rect width="19.8086" height="34.1657" fill="white" transform="translate(0.899994 12.2857) rotate(-36.588)"/>
</clipPath>
</defs>
</svg>
