<svg width="26" height="26" viewBox="0 0 26 26" fill="none" xmlns="http://www.w3.org/2000/svg">
<path d="M26.0016 6.49902L25.9996 6.50098V22.75C25.9996 24.5449 24.5445 26 22.7496 26H7.14999C5.35507 26 3.89999 24.5449 3.89999 22.75V3.25C3.89999 1.45507 5.35507 1.9328e-08 7.14999 0H19.4996L26.0016 6.49902Z" fill="#E5252A"/>
<path d="M19.5 0L22.75 3.25L26 6.5H21.45C20.373 6.5 19.5 5.62696 19.5 4.55V0Z" fill="white" fill-opacity="0.3"/>
<rect y="11.7" width="19.5" height="8.9" rx="1.3" fill="#AF1317"/>
<path d="M3.68646 18.65V13.8705H5.64053C6.71658 13.8705 7.38004 14.5406 7.37674 15.5143C7.38004 16.5012 6.70338 17.1515 5.60752 17.1515H4.80873V18.65H3.68646ZM4.80873 16.2603H5.40287C5.9343 16.2636 6.21486 15.9665 6.21486 15.5143C6.21486 15.0687 5.9343 14.7815 5.40287 14.7815H4.80873V16.2603ZM9.69389 18.65H7.94447V13.8705H9.69389C11.1528 13.8705 12.0506 14.765 12.0506 16.2603C12.0506 17.7522 11.1528 18.65 9.69389 18.65ZM9.06674 17.6862H9.65428C10.4729 17.6895 10.9218 17.2967 10.9218 16.2603C10.9218 15.2205 10.4729 14.831 9.64107 14.8277H9.06674V17.6862ZM12.7174 18.65V13.8705H15.9588V14.7881H13.8397V15.7981H15.7475V16.7158H13.8397V18.65H12.7174Z" fill="white"/>
</svg>
