<svg width="22" height="36" viewBox="0 0 22 36" fill="none" xmlns="http://www.w3.org/2000/svg">
<g clip-path="url(#clip0_7326_1970)">
<path d="M18.58 0H3.04C1.36105 0 0 1.36105 0 3.04V32.64C0 34.3189 1.36105 35.68 3.04 35.68H18.58C20.2589 35.68 21.62 34.3189 21.62 32.64V3.04C21.62 1.36105 20.2589 0 18.58 0Z" fill="#3A556A"/>
<path d="M19.27 5.80005H2.34V29.89H19.27V5.80005Z" fill="white"/>
<path d="M17.04 27.64V8.04004H4.59001L4.59001 27.64H17.04Z" fill="#3F7CEA"/>
<path d="M10.81 34.4C11.6881 34.4 12.4 33.6881 12.4 32.81C12.4 31.9318 11.6881 31.22 10.81 31.22C9.93187 31.22 9.22 31.9318 9.22 32.81C9.22 33.6881 9.93187 34.4 10.81 34.4Z" fill="white"/>
<path d="M13.72 2.16992H7.89001V3.53992H13.72V2.16992Z" fill="white"/>
</g>
<defs>
<clipPath id="clip0_7326_1970">
<rect width="21.62" height="35.68" fill="white"/>
</clipPath>
</defs>
</svg>
