<svg width="33" height="20" viewBox="0 0 33 20" fill="none" xmlns="http://www.w3.org/2000/svg">
<path d="M27.9275 0H5.0889C3.81673 0 2.78543 1.01451 2.78543 2.26597V16.143C2.78543 17.3945 3.81673 18.409 5.0889 18.409H27.9275C29.1997 18.409 30.231 17.3945 30.231 16.143V2.26597C30.231 1.01451 29.1997 0 27.9275 0Z" fill="#3A556A"/>
<path d="M27.7805 14.4316V3.99363C27.7805 3.12383 27.0637 2.4187 26.1795 2.4187L6.83689 2.4187C5.95269 2.4187 5.23591 3.12383 5.23591 3.99363V14.4316C5.23591 15.3014 5.95269 16.0065 6.83689 16.0065H26.1795C27.0637 16.0065 27.7805 15.3014 27.7805 14.4316Z" fill="white"/>
<path d="M10.6515 4.94177H7.75171V7.79432H10.6515V4.94177Z" stroke="#D5D6DB" stroke-miterlimit="10"/>
<path d="M10.6515 10.2933H7.75171V13.1459H10.6515V10.2933Z" stroke="#D5D6DB" stroke-miterlimit="10"/>
<path d="M12.8733 4.94177H15.9364" stroke="#D5D6DB" stroke-miterlimit="10"/>
<path d="M12.8733 7.6416H22.6262" stroke="#D5D6DB" stroke-miterlimit="10"/>
<path d="M12.8733 10.3656H19.9389" stroke="#D5D6DB" stroke-miterlimit="10"/>
<path d="M12.8733 13.0654H22.6262" stroke="#D5D6DB" stroke-miterlimit="10"/>
<path d="M12.0564 17.6858H18.052" stroke="#D5D6DB" stroke-miterlimit="10"/>
<path d="M0 16.0948H33V16.3359C33 16.8171 32.9037 17.2936 32.7165 17.7381C32.5293 18.1827 32.2549 18.5866 31.909 18.9268C31.5632 19.2671 31.1525 19.537 30.7006 19.7211C30.2487 19.9053 29.7644 20 29.2752 20H3.73293C3.24378 20 2.75943 19.9053 2.30752 19.7211C1.85561 19.537 1.445 19.2671 1.09913 18.9268C0.75325 18.5866 0.47889 18.1827 0.291704 17.7381C0.104518 17.2936 0.00817629 16.8171 0.00817629 16.3359V16.0948H0Z" fill="#3A556A"/>
<path d="M20.6658 16.0948H12.3341V17.5091H20.6658V16.0948Z" fill="#2D4454"/>
</svg>
