<svg width="26" height="25" viewBox="0 0 26 25" fill="none" xmlns="http://www.w3.org/2000/svg">
<circle cx="12.7791" cy="12.501" r="12.5" fill="#F9F9F9"/>
<path d="M17.2739 7.21289C18.4788 7.21303 19.4642 8.19843 19.4644 9.40332V14.6924C19.4641 15.8931 18.4828 16.8789 17.2778 16.8789H14.2378L13.7202 17.7734L13.2114 18.6553C13.1162 18.8168 12.8836 18.8168 12.7925 18.6553L12.2837 17.7734L11.7661 16.8789H8.75928C7.55849 16.8789 6.573 15.8973 6.57275 14.6924V9.39941C6.57278 8.19849 7.55421 7.21291 8.75928 7.21289H17.2739ZM16.2056 11.0928C15.597 11.0928 15.1042 11.6024 15.104 12.2275C15.104 12.8528 15.5968 13.3623 16.2056 13.3623C16.4582 13.3623 16.6903 13.2758 16.8726 13.1309V13.4453C16.8726 13.4453 16.8061 13.7559 16.3423 13.7559V14.3398C16.3423 14.3398 16.8433 14.3974 17.2905 13.9502C17.2972 13.9431 17.4986 13.7265 17.5435 13.4414V11.1387H16.8726V11.3252C16.6862 11.1803 16.454 11.0928 16.2056 11.0928ZM8.49463 13.3867H9.15771V13.1758C9.34398 13.3413 9.57964 13.4452 9.84033 13.4453C10.4325 13.4453 10.9136 12.9187 10.9136 12.2686C10.9134 11.6185 10.4366 11.0889 9.84033 11.0889C9.58387 11.0889 9.34395 11.1879 9.15771 11.3574V10.3848H8.49463V13.3867ZM13.6128 11.0889C12.9546 11.0891 12.4205 11.6147 12.4204 12.2646C12.4204 12.9147 12.9545 13.4402 13.6128 13.4404C14.2712 13.4404 14.8062 12.9148 14.8062 12.2646C14.8061 11.6145 14.2753 11.0889 13.6128 11.0889ZM10.9868 10.3271V10.9277C10.9868 10.9277 11.2941 10.9694 11.3521 11.2676V13.3877H12.0347V11.251C11.9937 10.9559 11.8195 10.733 11.8159 10.7285C11.4266 10.2688 10.9868 10.3271 10.9868 10.3271ZM9.7085 11.6768C10.0396 11.677 10.3041 11.9377 10.3042 12.2646C10.3042 12.5917 10.0396 12.8523 9.7085 12.8525C9.46433 12.8525 9.25283 12.708 9.16162 12.4971C9.13263 12.4267 9.11182 12.3475 9.11182 12.2646C9.11183 12.1819 9.12857 12.1035 9.16162 12.0332C9.25273 11.822 9.46416 11.6768 9.7085 11.6768ZM13.6128 11.7012C13.9275 11.7012 14.185 11.9541 14.1851 12.2646C14.1851 12.5752 13.9317 12.8281 13.6128 12.8281C13.2982 12.8279 13.0415 12.5751 13.0415 12.2646C13.0416 11.9542 13.2983 11.7014 13.6128 11.7012ZM16.3296 11.6436C16.5656 11.6436 16.7732 11.7764 16.8726 11.9668C16.914 12.0454 16.9341 12.1326 16.9341 12.2236C16.9341 12.3147 16.9098 12.4059 16.8726 12.4805C16.7732 12.6751 16.5656 12.8037 16.3296 12.8037C15.9943 12.8036 15.7251 12.5424 15.7251 12.2236C15.7252 11.9049 15.9985 11.6437 16.3296 11.6436Z" fill="#A6AEB7"/>
</svg>
