<svg width="51" height="26" viewBox="0 0 51 26" fill="none" xmlns="http://www.w3.org/2000/svg">
<g clip-path="url(#clip0_7326_580)">
<path fill-rule="evenodd" clip-rule="evenodd" d="M40.1523 24H10.7513C4.94946 24 0.25 19.3005 0.25 13.5013C0.25 7.70208 4.95208 3 10.7513 3H40.1523C45.9516 3 50.6536 7.70208 50.6536 13.5013C50.6536 19.3005 45.9542 24.0026 40.1523 24.0026" fill="#FFEB00"/>
<path fill-rule="evenodd" clip-rule="evenodd" d="M12.0419 8.03906C8.8784 8.03906 6.31055 10.0662 6.31055 12.5661C6.31055 14.1727 7.37374 15.5833 8.96983 16.3879L8.42909 18.4045C8.4082 18.4672 8.42648 18.5325 8.47089 18.5769C8.50224 18.6083 8.54403 18.624 8.58844 18.624C8.6224 18.624 8.65636 18.6109 8.68771 18.5874L11.01 17.02C11.347 17.0671 11.6918 17.0958 12.0419 17.0958C15.2053 17.0958 17.7732 15.0687 17.7732 12.5687C17.7732 10.0688 15.2079 8.04167 12.0419 8.04167V8.03906Z" fill="#101010"/>
<path d="M22.6035 16.3278V19.2509H20.5215V8.4701H21.9896L22.2456 9.15451C22.6871 8.71304 23.3584 8.24283 24.4425 8.24283C26.4827 8.24283 27.4518 9.76839 27.4361 12.2344C27.4361 14.8153 25.9393 16.4689 23.7999 16.4689C23.3871 16.4689 23.0737 16.4401 22.6035 16.3252V16.3278ZM22.6035 10.2099V14.8728C22.7184 14.8858 23.0031 14.9146 23.2748 14.9146C24.7586 14.9146 25.3281 13.8749 25.3281 12.2344C25.3281 10.795 24.944 9.92513 23.7607 9.92513C23.3767 9.92513 22.9483 10.0401 22.6061 10.2099H22.6035Z" fill="#101010"/>
<path d="M31.9681 11.5081H33.1514V11.2521C33.1514 10.3979 32.6656 9.99825 31.8244 9.99825C31.1818 9.99825 30.3563 10.1837 29.685 10.5129L29.1155 9.11531C29.8574 8.60069 30.9963 8.24542 32.0099 8.24542C34.0057 8.24542 35.0897 9.30078 35.0897 11.3122V16.2599H33.6217L33.4074 15.6042C32.5663 16.2181 31.7957 16.4741 31.0982 16.4741C29.5726 16.4741 28.7158 15.5624 28.7158 14.0211C28.7158 12.3806 29.8574 11.5108 31.9655 11.5108L31.9681 11.5081ZM33.1514 14.2589V12.8326H32.1954C31.1269 12.8326 30.5836 13.2166 30.5836 13.9872C30.5836 14.5723 30.884 14.8571 31.4953 14.8571C32.0647 14.8571 32.7936 14.5723 33.1488 14.2589H33.1514Z" fill="#101010"/>
<path d="M41.3932 15.4579C40.667 17.3962 39.7971 18.8094 38.5276 19.5931L37.2449 18.4098C37.9868 17.7671 38.5145 17.1402 38.969 16.299L36.2026 8.75743L38.2689 8.20102L40.0374 14.3189L41.7903 8.1749L43.8305 8.74437L41.3932 15.4605V15.4579Z" fill="#101010"/>
</g>
<defs>
<clipPath id="clip0_7326_580">
<rect width="50.401" height="21" fill="white" transform="translate(0.25 3)"/>
</clipPath>
</defs>
</svg>
