<svg width="130" height="21" viewBox="0 0 130 21" fill="none" xmlns="http://www.w3.org/2000/svg">
<path d="M3.961 13.756H7.769V16H1.054V4.066H3.961V13.756ZM8.40756 11.24C8.40756 10.2653 8.5889 9.40967 8.95156 8.673C9.32556 7.93633 9.8299 7.36967 10.4646 6.973C11.0992 6.57633 11.8076 6.378 12.5896 6.378C13.2582 6.378 13.8419 6.514 14.3406 6.786C14.8506 7.058 15.2416 7.415 15.5136 7.857V6.514H18.4206V16H15.5136V14.657C15.2302 15.099 14.8336 15.456 14.3236 15.728C13.8249 16 13.2412 16.136 12.5726 16.136C11.8019 16.136 11.0992 15.9377 10.4646 15.541C9.8299 15.133 9.32556 14.5607 8.95156 13.824C8.5889 13.076 8.40756 12.2147 8.40756 11.24ZM15.5136 11.257C15.5136 10.5317 15.3096 9.95933 14.9016 9.54C14.5049 9.12067 14.0176 8.911 13.4396 8.911C12.8616 8.911 12.3686 9.12067 11.9606 9.54C11.5639 9.948 11.3656 10.5147 11.3656 11.24C11.3656 11.9653 11.5639 12.5433 11.9606 12.974C12.3686 13.3933 12.8616 13.603 13.4396 13.603C14.0176 13.603 14.5049 13.3933 14.9016 12.974C15.3096 12.5547 15.5136 11.9823 15.5136 11.257ZM23.2606 7.857C23.5326 7.415 23.9236 7.058 24.4336 6.786C24.9436 6.514 25.5273 6.378 26.1846 6.378C26.9666 6.378 27.675 6.57633 28.3096 6.973C28.9443 7.36967 29.443 7.93633 29.8056 8.673C30.1796 9.40967 30.3666 10.2653 30.3666 11.24C30.3666 12.2147 30.1796 13.076 29.8056 13.824C29.443 14.5607 28.9443 15.133 28.3096 15.541C27.675 15.9377 26.9666 16.136 26.1846 16.136C25.516 16.136 24.9323 16.0057 24.4336 15.745C23.935 15.473 23.544 15.116 23.2606 14.674V16H20.3536V3.42H23.2606V7.857ZM27.4086 11.24C27.4086 10.5147 27.2046 9.948 26.7966 9.54C26.4 9.12067 25.907 8.911 25.3176 8.911C24.7396 8.911 24.2466 9.12067 23.8386 9.54C23.442 9.95933 23.2436 10.5317 23.2436 11.257C23.2436 11.9823 23.442 12.5547 23.8386 12.974C24.2466 13.3933 24.7396 13.603 25.3176 13.603C25.8956 13.603 26.3886 13.3933 26.7966 12.974C27.2046 12.5433 27.4086 11.9653 27.4086 11.24ZM40.6637 11.104C40.6637 11.376 40.6467 11.6593 40.6127 11.954H34.0337C34.0791 12.5433 34.2661 12.9967 34.5947 13.314C34.9347 13.62 35.3484 13.773 35.8357 13.773C36.5611 13.773 37.0654 13.467 37.3487 12.855H40.4427C40.2841 13.4783 39.9951 14.0393 39.5757 14.538C39.1677 15.0367 38.6521 15.4277 38.0287 15.711C37.4054 15.9943 36.7084 16.136 35.9377 16.136C35.0084 16.136 34.1811 15.9377 33.4557 15.541C32.7304 15.1443 32.1637 14.5777 31.7557 13.841C31.3477 13.1043 31.1437 12.243 31.1437 11.257C31.1437 10.271 31.3421 9.40967 31.7387 8.673C32.1467 7.93633 32.7134 7.36967 33.4387 6.973C34.1641 6.57633 34.9971 6.378 35.9377 6.378C36.8557 6.378 37.6717 6.57067 38.3857 6.956C39.0997 7.34133 39.6551 7.891 40.0517 8.605C40.4597 9.319 40.6637 10.152 40.6637 11.104ZM37.6887 10.339C37.6887 9.84033 37.5187 9.44367 37.1787 9.149C36.8387 8.85433 36.4137 8.707 35.9037 8.707C35.4164 8.707 35.0027 8.84867 34.6627 9.132C34.3341 9.41533 34.1301 9.81767 34.0507 10.339H37.6887ZM44.9343 3.42V16H42.0273V3.42H44.9343Z" fill="#3A5D9C"/>
<path d="M49.816 10.05C49.816 8.88267 50.071 7.84 50.581 6.922C51.091 5.99267 51.788 5.273 52.672 4.763C53.556 4.24167 54.542 3.981 55.63 3.981C56.956 3.981 58.0893 4.29833 59.03 4.933C59.982 5.55633 60.6733 6.44033 61.104 7.585H59.71C59.37 6.78033 58.8487 6.15133 58.146 5.698C57.4547 5.24467 56.616 5.018 55.63 5.018C54.7573 5.018 53.9697 5.222 53.267 5.63C52.5757 6.038 52.0317 6.62733 51.635 7.398C51.2383 8.15733 51.04 9.04133 51.04 10.05C51.04 11.0587 51.2383 11.9427 51.635 12.702C52.0317 13.4613 52.5757 14.045 53.267 14.453C53.9697 14.861 54.7573 15.065 55.63 15.065C56.616 15.065 57.4547 14.844 58.146 14.402C58.8487 13.9487 59.37 13.3253 59.71 12.532H61.104C60.6733 13.6653 59.982 14.5437 59.03 15.167C58.078 15.7903 56.9447 16.102 55.63 16.102C54.542 16.102 53.556 15.847 52.672 15.337C51.788 14.8157 51.091 14.096 50.581 13.178C50.071 12.26 49.816 11.2173 49.816 10.05ZM66.5182 16.136C65.6456 16.136 64.8579 15.9433 64.1552 15.558C63.4639 15.1613 62.9142 14.606 62.5062 13.892C62.1096 13.1667 61.9112 12.3223 61.9112 11.359C61.9112 10.3957 62.1152 9.557 62.5232 8.843C62.9312 8.11767 63.4866 7.56233 64.1892 7.177C64.8919 6.78033 65.6796 6.582 66.5522 6.582C67.4249 6.582 68.2126 6.78033 68.9152 7.177C69.6292 7.56233 70.1846 8.11767 70.5812 8.843C70.9892 9.557 71.1932 10.3957 71.1932 11.359C71.1932 12.311 70.9892 13.1497 70.5812 13.875C70.1732 14.6003 69.6122 15.1613 68.8982 15.558C68.1842 15.9433 67.3909 16.136 66.5182 16.136ZM66.5182 15.099C67.1302 15.099 67.6969 14.963 68.2182 14.691C68.7396 14.4077 69.1589 13.9883 69.4762 13.433C69.8049 12.8663 69.9692 12.175 69.9692 11.359C69.9692 10.543 69.8106 9.85733 69.4932 9.302C69.1759 8.73533 68.7566 8.316 68.2352 8.044C67.7139 7.76067 67.1472 7.619 66.5352 7.619C65.9232 7.619 65.3566 7.76067 64.8352 8.044C64.3139 8.316 63.8946 8.73533 63.5772 9.302C63.2712 9.85733 63.1182 10.543 63.1182 11.359C63.1182 12.175 63.2712 12.8663 63.5772 13.433C63.8946 13.9883 64.3082 14.4077 64.8182 14.691C65.3396 14.963 65.9062 15.099 66.5182 15.099ZM83.3925 6.548C84.4805 6.548 85.3645 6.89367 86.0445 7.585C86.7358 8.265 87.0815 9.25667 87.0815 10.56V16H85.9085V10.696C85.9085 9.68733 85.6648 8.91667 85.1775 8.384C84.6901 7.85133 84.0271 7.585 83.1885 7.585C82.3158 7.585 81.6188 7.874 81.0975 8.452C80.5761 9.03 80.3155 9.86867 80.3155 10.968V16H79.1425V10.696C79.1425 9.68733 78.8988 8.91667 78.4115 8.384C77.9241 7.85133 77.2555 7.585 76.4055 7.585C75.5328 7.585 74.8358 7.874 74.3145 8.452C73.7931 9.03 73.5325 9.86867 73.5325 10.968V16H72.3425V6.718H73.5325V8.316C73.8271 7.738 74.2465 7.30167 74.7905 7.007C75.3345 6.701 75.9408 6.548 76.6095 6.548C77.4141 6.548 78.1168 6.74067 78.7175 7.126C79.3295 7.51133 79.7715 8.078 80.0435 8.826C80.2928 8.08933 80.7178 7.52833 81.3185 7.143C81.9305 6.74633 82.6218 6.548 83.3925 6.548ZM89.8773 8.758C90.172 8.13467 90.6366 7.619 91.2713 7.211C91.9173 6.79167 92.6823 6.582 93.5663 6.582C94.405 6.582 95.1586 6.78033 95.8273 7.177C96.5073 7.56233 97.0343 8.11767 97.4083 8.843C97.7936 9.557 97.9863 10.39 97.9863 11.342C97.9863 12.294 97.7936 13.1327 97.4083 13.858C97.0343 14.5833 96.5073 15.1443 95.8273 15.541C95.1586 15.9377 94.405 16.136 93.5663 16.136C92.6936 16.136 91.9343 15.932 91.2883 15.524C90.6423 15.1047 90.172 14.5833 89.8773 13.96V20.386H88.7043V6.718H89.8773V8.758ZM96.7793 11.342C96.7793 10.5713 96.6263 9.90833 96.3203 9.353C96.0256 8.78633 95.6176 8.35567 95.0963 8.061C94.575 7.76633 93.9856 7.619 93.3283 7.619C92.6936 7.619 92.11 7.772 91.5773 8.078C91.056 8.384 90.6423 8.82033 90.3363 9.387C90.0303 9.95367 89.8773 10.611 89.8773 11.359C89.8773 12.107 90.0303 12.7643 90.3363 13.331C90.6423 13.8977 91.056 14.334 91.5773 14.64C92.11 14.946 92.6936 15.099 93.3283 15.099C93.9856 15.099 94.575 14.9517 95.0963 14.657C95.6176 14.351 96.0256 13.9147 96.3203 13.348C96.6263 12.77 96.7793 12.1013 96.7793 11.342ZM98.612 11.342C98.612 10.39 98.799 9.557 99.173 8.843C99.5583 8.11767 100.085 7.56233 100.754 7.177C101.434 6.78033 102.199 6.582 103.049 6.582C103.933 6.582 104.692 6.786 105.327 7.194C105.973 7.602 106.438 8.12333 106.721 8.758V6.718H107.911V16H106.721V13.943C106.426 14.5777 105.956 15.1047 105.31 15.524C104.675 15.932 103.916 16.136 103.032 16.136C102.193 16.136 101.434 15.9377 100.754 15.541C100.085 15.1443 99.5583 14.5833 99.173 13.858C98.799 13.1327 98.612 12.294 98.612 11.342ZM106.721 11.359C106.721 10.611 106.568 9.95367 106.262 9.387C105.956 8.82033 105.537 8.384 105.004 8.078C104.483 7.772 103.905 7.619 103.27 7.619C102.613 7.619 102.023 7.76633 101.502 8.061C100.981 8.35567 100.567 8.78633 100.261 9.353C99.9663 9.90833 99.819 10.5713 99.819 11.342C99.819 12.1013 99.9663 12.77 100.261 13.348C100.567 13.9147 100.981 14.351 101.502 14.657C102.023 14.9517 102.613 15.099 103.27 15.099C103.905 15.099 104.483 14.946 105.004 14.64C105.537 14.334 105.956 13.8977 106.262 13.331C106.568 12.7643 106.721 12.107 106.721 11.359ZM110.798 8.367C111.058 7.789 111.455 7.34133 111.988 7.024C112.532 6.70667 113.195 6.548 113.977 6.548V7.789H113.654C112.792 7.789 112.101 8.02133 111.58 8.486C111.058 8.95067 110.798 9.727 110.798 10.815V16H109.608V6.718H110.798V8.367ZM123.145 10.883C123.145 11.291 123.134 11.6027 123.111 11.818H115.41C115.444 12.5207 115.614 13.1213 115.92 13.62C116.226 14.1187 116.628 14.4983 117.127 14.759C117.625 15.0083 118.169 15.133 118.759 15.133C119.529 15.133 120.175 14.946 120.697 14.572C121.23 14.198 121.581 13.6937 121.751 13.059H123.009C122.782 13.9657 122.295 14.708 121.547 15.286C120.81 15.8527 119.881 16.136 118.759 16.136C117.886 16.136 117.104 15.9433 116.413 15.558C115.721 15.1613 115.177 14.606 114.781 13.892C114.395 13.1667 114.203 12.3223 114.203 11.359C114.203 10.3957 114.395 9.55133 114.781 8.826C115.166 8.10067 115.704 7.54533 116.396 7.16C117.087 6.77467 117.875 6.582 118.759 6.582C119.643 6.582 120.414 6.77467 121.071 7.16C121.74 7.54533 122.25 8.06667 122.601 8.724C122.964 9.37 123.145 10.0897 123.145 10.883ZM121.938 10.849C121.949 10.1577 121.808 9.56833 121.513 9.081C121.23 8.59367 120.839 8.22533 120.34 7.976C119.841 7.72667 119.297 7.602 118.708 7.602C117.824 7.602 117.07 7.88533 116.447 8.452C115.823 9.01867 115.478 9.81767 115.41 10.849H121.938ZM125.492 8.367C125.753 7.789 126.149 7.34133 126.682 7.024C127.226 6.70667 127.889 6.548 128.671 6.548V7.789H128.348C127.487 7.789 126.795 8.02133 126.274 8.486C125.753 8.95067 125.492 9.727 125.492 10.815V16H124.302V6.718H125.492V8.367Z" fill="url(#paint0_linear_7360_79)"/>
<defs>
<linearGradient id="paint0_linear_7360_79" x1="49" y1="10" x2="130" y2="10" gradientUnits="userSpaceOnUse">
<stop stop-color="#2F826E"/>
<stop offset="1" stop-color="#666666"/>
</linearGradient>
</defs>
</svg>
