<svg width="327" height="52" viewBox="0 0 327 52" fill="none" xmlns="http://www.w3.org/2000/svg">
<path d="M10.6904 34.3555H20.269V40H3.37814V9.9814H10.6904V34.3555ZM21.8752 28.0268C21.8752 25.5751 22.3313 23.4228 23.2436 21.5698C24.1843 19.7168 25.4529 18.2914 27.0493 17.2936C28.6458 16.2959 30.4275 15.797 32.3945 15.797C34.0765 15.797 35.5446 16.1391 36.799 16.8232C38.0818 17.5074 39.0653 18.4054 39.7495 19.5172V16.1391H47.0617V40H39.7495V36.6218C39.0368 37.7336 38.039 38.6316 36.7562 39.3158C35.5019 40 34.0337 40.3421 32.3518 40.3421C30.4132 40.3421 28.6458 39.8432 27.0493 38.8454C25.4529 37.8192 24.1843 36.3795 23.2436 34.5265C22.3313 32.645 21.8752 30.4784 21.8752 28.0268ZM39.7495 28.0695C39.7495 26.245 39.2364 24.8054 38.2101 23.7506C37.2123 22.6958 35.9865 22.1684 34.5326 22.1684C33.0787 22.1684 31.8386 22.6958 30.8123 23.7506C29.8146 24.7769 29.3157 26.2023 29.3157 28.0268C29.3157 29.8513 29.8146 31.3052 30.8123 32.3884C31.8386 33.4432 33.0787 33.9706 34.5326 33.9706C35.9865 33.9706 37.2123 33.4432 38.2101 32.3884C39.2364 31.3337 39.7495 29.894 39.7495 28.0695ZM59.2364 19.5172C59.9206 18.4054 60.9041 17.5074 62.187 16.8232C63.4698 16.1391 64.9379 15.797 66.5914 15.797C68.5584 15.797 70.3402 16.2959 71.9366 17.2936C73.533 18.2914 74.7874 19.7168 75.6996 21.5698C76.6404 23.4228 77.1107 25.5751 77.1107 28.0268C77.1107 30.4784 76.6404 32.645 75.6996 34.5265C74.7874 36.3795 73.533 37.8192 71.9366 38.8454C70.3402 39.8432 68.5584 40.3421 66.5914 40.3421C64.9094 40.3421 63.4413 40.0143 62.187 39.3586C60.9326 38.6744 59.9491 37.7764 59.2364 36.6646V40H51.9242V8.35646H59.2364V19.5172ZM69.6702 28.0268C69.6702 26.2023 69.1571 24.7769 68.1308 23.7506C67.133 22.6958 65.893 22.1684 64.4106 22.1684C62.9567 22.1684 61.7166 22.6958 60.6903 23.7506C59.6925 24.8054 59.1936 26.245 59.1936 28.0695C59.1936 29.894 59.6925 31.3337 60.6903 32.3884C61.7166 33.4432 62.9567 33.9706 64.4106 33.9706C65.8644 33.9706 67.1045 33.4432 68.1308 32.3884C69.1571 31.3052 69.6702 29.8513 69.6702 28.0268ZM103.012 27.6847C103.012 28.3689 102.969 29.0816 102.884 29.8228H86.3349C86.4489 31.3052 86.9193 32.4455 87.746 33.2437C88.6012 34.0134 89.6418 34.3982 90.8676 34.3982C92.6921 34.3982 93.9607 33.6285 94.6734 32.0891H102.456C102.057 33.657 101.33 35.0682 100.275 36.3225C99.2489 37.5768 97.9518 38.5604 96.3838 39.2731C94.8159 39.9857 93.0627 40.3421 91.1242 40.3421C88.7865 40.3421 86.7055 39.8432 84.881 38.8454C83.0565 37.8477 81.6311 36.4223 80.6048 34.5693C79.5785 32.7163 79.0654 30.5497 79.0654 28.0695C79.0654 25.5894 79.5643 23.4228 80.5621 21.5698C81.5883 19.7168 83.0137 18.2914 84.8382 17.2936C86.6627 16.2959 88.758 15.797 91.1242 15.797C93.4333 15.797 95.4858 16.2816 97.2818 17.2509C99.0778 18.2201 100.475 19.6027 101.472 21.3987C102.499 23.1947 103.012 25.29 103.012 27.6847ZM95.5286 25.7604C95.5286 24.5061 95.101 23.5083 94.2458 22.7671C93.3905 22.0259 92.3215 21.6553 91.0386 21.6553C89.8128 21.6553 88.7723 22.0116 87.917 22.7243C87.0903 23.437 86.5772 24.4491 86.3776 25.7604H95.5286ZM113.754 8.35646V40H106.442V8.35646H113.754Z" fill="#3A5D9C"/>
<path d="M126.326 25.0335C126.326 22.0972 126.967 19.4745 128.25 17.1653C129.533 14.8277 131.286 13.0175 133.51 11.7346C135.733 10.4233 138.213 9.76759 140.95 9.76759C144.285 9.76759 147.136 10.5658 149.502 12.1622C151.897 13.7302 153.636 15.9538 154.719 18.833H151.213C150.358 16.809 149.046 15.2268 147.279 14.0865C145.54 12.9462 143.43 12.376 140.95 12.376C138.755 12.376 136.774 12.8892 135.006 13.9155C133.267 14.9417 131.899 16.4241 130.901 18.3627C129.903 20.2727 129.404 22.4963 129.404 25.0335C129.404 27.5706 129.903 29.7942 130.901 31.7043C131.899 33.6143 133.267 35.0824 135.006 36.1087C136.774 37.135 138.755 37.6481 140.95 37.6481C143.43 37.6481 145.54 37.0922 147.279 35.9804C149.046 34.8401 150.358 33.2722 151.213 31.2766H154.719C153.636 34.1274 151.897 36.3368 149.502 37.9047C147.108 39.4726 144.257 40.2566 140.95 40.2566C138.213 40.2566 135.733 39.6151 133.51 38.3323C131.286 37.0209 129.533 35.2107 128.25 32.9016C126.967 30.5925 126.326 27.9698 126.326 25.0335ZM168.338 40.3421C166.143 40.3421 164.162 39.8575 162.394 38.8882C160.655 37.8904 159.273 36.4936 158.246 34.6976C157.249 32.8731 156.75 30.7493 156.75 28.3261C156.75 25.9029 157.263 23.7934 158.289 21.9974C159.315 20.1729 160.712 18.776 162.48 17.8068C164.247 16.809 166.229 16.3101 168.424 16.3101C170.619 16.3101 172.6 16.809 174.368 17.8068C176.164 18.776 177.56 20.1729 178.558 21.9974C179.584 23.7934 180.098 25.9029 180.098 28.3261C180.098 30.7207 179.584 32.8303 178.558 34.6548C177.532 36.4793 176.121 37.8904 174.325 38.8882C172.529 39.8575 170.533 40.3421 168.338 40.3421ZM168.338 37.7336C169.878 37.7336 171.303 37.3915 172.614 36.7074C173.926 35.9947 174.98 34.9399 175.779 33.543C176.605 32.1176 177.019 30.3787 177.019 28.3261C177.019 26.2735 176.62 24.5488 175.821 23.152C175.023 21.7266 173.968 20.6718 172.657 19.9876C171.346 19.2749 169.92 18.9186 168.381 18.9186C166.842 18.9186 165.416 19.2749 164.105 19.9876C162.793 20.6718 161.739 21.7266 160.94 23.152C160.171 24.5488 159.786 26.2735 159.786 28.3261C159.786 30.3787 160.171 32.1176 160.94 33.543C161.739 34.9399 162.779 35.9947 164.062 36.7074C165.373 37.3915 166.799 37.7336 168.338 37.7336ZM210.783 16.2246C213.52 16.2246 215.744 17.0941 217.454 18.833C219.193 20.5435 220.063 23.0379 220.063 26.3163V40H217.112V26.6584C217.112 24.1212 216.499 22.1827 215.273 20.8428C214.047 19.503 212.38 18.833 210.27 18.833C208.075 18.833 206.322 19.56 205.011 21.0139C203.699 22.4678 203.044 24.5773 203.044 27.3426V40H200.093V26.6584C200.093 24.1212 199.48 22.1827 198.254 20.8428C197.028 19.503 195.346 18.833 193.208 18.833C191.013 18.833 189.26 19.56 187.949 21.0139C186.637 22.4678 185.982 24.5773 185.982 27.3426V40H182.988V16.6522H185.982V20.6718C186.723 19.2179 187.778 18.1203 189.146 17.3791C190.514 16.6094 192.04 16.2246 193.721 16.2246C195.746 16.2246 197.513 16.7092 199.024 17.6785C200.563 18.6477 201.675 20.0731 202.359 21.9546C202.986 20.1016 204.056 18.6905 205.566 17.7212C207.106 16.7235 208.845 16.2246 210.783 16.2246ZM227.095 21.7836C227.836 20.2157 229.005 18.9186 230.602 17.8923C232.227 16.8375 234.151 16.3101 236.374 16.3101C238.484 16.3101 240.38 16.809 242.062 17.8068C243.772 18.776 245.098 20.1729 246.039 21.9974C247.008 23.7934 247.492 25.8887 247.492 28.2833C247.492 30.678 247.008 32.7876 246.039 34.612C245.098 36.4365 243.772 37.8477 242.062 38.8454C240.38 39.8432 238.484 40.3421 236.374 40.3421C234.179 40.3421 232.269 39.829 230.644 38.8027C229.019 37.7479 227.836 36.4365 227.095 34.8686V51.0325H224.145V16.6522H227.095V21.7836ZM244.456 28.2833C244.456 26.3448 244.072 24.6771 243.302 23.2802C242.561 21.8549 241.534 20.7716 240.223 20.0304C238.912 19.2892 237.429 18.9186 235.776 18.9186C234.179 18.9186 232.711 19.3034 231.371 20.0731C230.06 20.8428 229.019 21.9404 228.25 23.3658C227.48 24.7911 227.095 26.4446 227.095 28.3261C227.095 30.2076 227.48 31.8611 228.25 33.2864C229.019 34.7118 230.06 35.8094 231.371 36.5791C232.711 37.3488 234.179 37.7336 235.776 37.7336C237.429 37.7336 238.912 37.363 240.223 36.6218C241.534 35.8521 242.561 34.7546 243.302 33.3292C244.072 31.8753 244.456 30.1934 244.456 28.2833ZM249.066 28.2833C249.066 25.8887 249.537 23.7934 250.477 21.9974C251.447 20.1729 252.772 18.776 254.454 17.8068C256.165 16.809 258.089 16.3101 260.227 16.3101C262.451 16.3101 264.361 16.8232 265.957 17.8495C267.582 18.8758 268.751 20.1872 269.464 21.7836V16.6522H272.457V40H269.464V34.8259C268.722 36.4223 267.539 37.7479 265.914 38.8027C264.318 39.829 262.408 40.3421 260.184 40.3421C258.075 40.3421 256.165 39.8432 254.454 38.8454C252.772 37.8477 251.447 36.4365 250.477 34.612C249.537 32.7876 249.066 30.678 249.066 28.2833ZM269.464 28.3261C269.464 26.4446 269.079 24.7911 268.309 23.3658C267.539 21.9404 266.484 20.8428 265.145 20.0731C263.833 19.3034 262.379 18.9186 260.783 18.9186C259.129 18.9186 257.647 19.2892 256.336 20.0304C255.024 20.7716 253.984 21.8549 253.214 23.2802C252.473 24.6771 252.102 26.3448 252.102 28.2833C252.102 30.1934 252.473 31.8753 253.214 33.3292C253.984 34.7546 255.024 35.8521 256.336 36.6218C257.647 37.363 259.129 37.7336 260.783 37.7336C262.379 37.7336 263.833 37.3488 265.145 36.5791C266.484 35.8094 267.539 34.7118 268.309 33.2864C269.079 31.8611 269.464 30.2076 269.464 28.3261ZM279.718 20.8001C280.374 19.3462 281.371 18.2201 282.711 17.4219C284.08 16.6237 285.747 16.2246 287.714 16.2246V19.3462H286.902C284.735 19.3462 282.996 19.9306 281.685 21.0994C280.374 22.2682 279.718 24.221 279.718 26.9577V40H276.725V16.6522H279.718V20.8001ZM310.776 27.1288C310.776 28.1551 310.747 28.939 310.69 29.4807H291.319C291.405 31.2481 291.832 32.759 292.602 34.0134C293.372 35.2677 294.384 36.2227 295.638 36.8784C296.893 37.5056 298.261 37.8192 299.743 37.8192C301.682 37.8192 303.307 37.3488 304.618 36.408C305.958 35.4673 306.842 34.1987 307.269 32.6023H310.434C309.864 34.8829 308.638 36.7501 306.756 38.204C304.903 39.6294 302.566 40.3421 299.743 40.3421C297.548 40.3421 295.581 39.8575 293.842 38.8882C292.103 37.8904 290.735 36.4936 289.737 34.6976C288.768 32.8731 288.283 30.7493 288.283 28.3261C288.283 25.9029 288.768 23.7791 289.737 21.9546C290.706 20.1301 292.061 18.7333 293.8 17.764C295.538 16.7947 297.52 16.3101 299.743 16.3101C301.967 16.3101 303.905 16.7947 305.559 17.764C307.241 18.7333 308.524 20.0446 309.407 21.6981C310.32 23.323 310.776 25.1332 310.776 27.1288ZM307.74 27.0433C307.768 25.3043 307.412 23.8219 306.671 22.5961C305.958 21.3702 304.975 20.4437 303.72 19.8166C302.466 19.1894 301.097 18.8758 299.615 18.8758C297.391 18.8758 295.496 19.5885 293.928 21.0139C292.36 22.4393 291.49 24.4491 291.319 27.0433H307.74ZM316.68 20.8001C317.336 19.3462 318.333 18.2201 319.673 17.4219C321.042 16.6237 322.709 16.2246 324.676 16.2246V19.3462H323.864C321.697 19.3462 319.958 19.9306 318.647 21.0994C317.336 22.2682 316.68 24.221 316.68 26.9577V40H313.687V16.6522H316.68V20.8001Z" fill="url(#paint0_linear_7335_1986)"/>
<defs>
<linearGradient id="paint0_linear_7335_1986" x1="124.273" y1="25.5" x2="326.273" y2="25.5" gradientUnits="userSpaceOnUse">
<stop stop-color="#2F826E"/>
<stop offset="1" stop-color="#666666"/>
</linearGradient>
</defs>
</svg>
