<svg width="295" height="65" viewBox="0 0 295 65" fill="none" xmlns="http://www.w3.org/2000/svg">
<path d="M14.7812 12.2383C22.1113 12.2383 27.4111 18.8564 27.4375 29.3242C27.4111 39.8711 22.1113 46.4629 14.7812 46.4629C7.4248 46.4629 2.09863 39.8711 2.125 29.3242C2.09863 18.8564 7.4248 12.2383 14.7812 12.2383ZM8.61133 29.3242C8.61133 36.4697 11.1162 40.3721 14.7812 40.3457C18.5254 40.3721 20.9775 36.4697 21.0039 29.3242C20.9775 22.2051 18.5254 18.3027 14.7812 18.3027C11.1162 18.3027 8.61133 22.2051 8.61133 29.3242ZM32.9746 56.8516V8.86328H39.7246V26.9512H46.791V32.541H39.7246V56.8516H32.9746ZM88.7148 8.86328V37.7617H81.9648V8.86328H88.7148ZM48.7422 31.8027C56.6787 29.2451 60.3438 23.0225 60.3965 17.0371H50.5352V11.6582H76.9023V17.0371H67.252C67.2783 22.6797 70.8643 28.5332 78.6953 30.9062L75.2676 36.127C69.8887 34.4395 66.1182 30.9854 63.9561 26.6348C61.7676 31.3809 57.8652 35.1514 52.2227 37.0234L48.7422 31.8027ZM55.7031 45.25V39.8711H88.7148V56.8516H81.9648V45.25H55.7031ZM134.33 30.3262V35.6523H120.408V45.8828H139.129V51.3672H95.2012V45.8828H113.711V35.6523H100.369V12.2383H133.961V17.6172H107.119V30.3262H134.33ZM193.287 21.8359V27.1621H159.959V10.1289H166.709V21.8359H193.287ZM154.316 36.7598V31.4863H198.191V36.7598H180.104V45.25H173.406V36.7598H154.316ZM159.484 56.0078V41.5586H166.182V50.6289H193.656V56.0078H159.484Z" fill="#101010"/>
<path d="M293.517 45.9883V51.5254H249.589V45.9883H268.099V38.7637H254.651V22.627H281.81V17.3535H254.599V11.9746H288.454V27.9004H261.401V33.2793H289.562V38.7637H274.796V45.9883H293.517Z" fill="#101010"/>
<path d="M245.717 46V51.4844H202V46H245.717Z" fill="#101010"/>
<path d="M227.535 23.9111C227.606 26.1389 227.015 28.3377 225.836 30.2295C224.658 32.1213 222.945 33.6212 220.914 34.5395C218.883 35.4578 216.625 35.7534 214.427 35.3887C212.228 35.0241 210.186 34.0156 208.561 32.4909C206.935 30.9662 205.798 28.9936 205.293 26.8227C204.788 24.6517 204.938 22.3798 205.725 20.2942C206.511 18.2087 207.898 16.4031 209.71 15.1057C211.523 13.8084 213.679 13.0776 215.907 13.0058C218.895 12.9103 221.799 14.0056 223.979 16.0506C226.16 18.0957 227.439 20.9231 227.535 23.9111Z" fill="#F4F4F4"/>
<path d="M216.976 25.0827C217.014 26.2656 216.7 27.4332 216.074 28.4378C215.448 29.4424 214.539 30.2389 213.46 30.7266C212.382 31.2143 211.183 31.3714 210.016 31.178C208.848 30.9845 207.764 30.4492 206.9 29.6398C206.037 28.8304 205.433 27.7831 205.164 26.6304C204.896 25.4777 204.975 24.2712 205.392 23.1636C205.809 22.056 206.545 21.0968 207.508 20.4075C208.47 19.7181 209.614 19.3294 210.797 19.2906C211.583 19.2648 212.367 19.3941 213.103 19.6713C213.839 19.9485 214.513 20.3681 215.087 20.906C215.661 21.4439 216.123 22.0897 216.448 22.8063C216.772 23.523 216.951 24.2965 216.976 25.0827Z" fill="black"/>
<path d="M242.994 23.9111C243.065 26.1389 242.474 28.3377 241.296 30.2295C240.117 32.1213 238.404 33.6212 236.373 34.5395C234.342 35.4578 232.085 35.7534 229.886 35.3887C227.687 35.0241 225.646 34.0156 224.02 32.4909C222.394 30.9662 221.257 28.9936 220.752 26.8227C220.247 24.6517 220.398 22.3798 221.184 20.2942C221.97 18.2087 223.357 16.4031 225.17 15.1057C226.982 13.8084 229.139 13.0776 231.366 13.0058C234.354 12.9103 237.258 14.0056 239.438 16.0506C241.619 18.0957 242.898 20.9231 242.994 23.9111Z" fill="#F4F4F4"/>
<path d="M232.432 25.0827C232.47 26.2656 232.156 27.4332 231.53 28.4378C230.904 29.4424 229.994 30.2389 228.916 30.7266C227.838 31.2143 226.639 31.3714 225.471 31.178C224.303 30.9845 223.219 30.4492 222.356 29.6398C221.492 28.8304 220.888 27.7831 220.62 26.6304C220.351 25.4777 220.431 24.2712 220.848 23.1636C221.265 22.056 222.001 21.0968 222.963 20.4075C223.925 19.7181 225.07 19.3294 226.253 19.2906C227.039 19.2648 227.823 19.3941 228.559 19.6713C229.295 19.9485 229.969 20.3681 230.543 20.906C231.117 21.4439 231.579 22.0897 231.903 22.8063C232.227 23.523 232.407 24.2965 232.432 25.0827Z" fill="black"/>
</svg>
