<svg width="44" height="39" viewBox="0 0 44 39" fill="none" xmlns="http://www.w3.org/2000/svg">
<path d="M43.7168 33V38.4844H0V33H43.7168Z" fill="#101010"/>
<path d="M25.535 10.9111C25.606 13.1389 25.0149 15.3377 23.8363 17.2295C22.6578 19.1213 20.9448 20.6212 18.9139 21.5395C16.883 22.4578 14.6254 22.7534 12.4265 22.3887C10.2277 22.0241 8.18631 21.0156 6.56055 19.4909C4.93478 17.9662 3.79762 15.9936 3.29284 13.8227C2.78805 11.6517 2.93832 9.3798 3.72463 7.29423C4.51095 5.20866 5.898 3.40306 7.71041 2.10574C9.52283 0.808414 11.6792 0.0776183 13.9069 0.00575139C16.8949 -0.0896739 19.7985 1.00558 21.9791 3.05065C24.1597 5.09572 25.4387 7.92314 25.535 10.9111Z" fill="#F4F4F4"/>
<path d="M14.9763 12.0827C15.0139 13.2656 14.7 14.4332 14.0742 15.4378C13.4484 16.4424 12.5388 17.2389 11.4604 17.7266C10.382 18.2143 9.1832 18.3714 8.01555 18.178C6.8479 17.9845 5.76381 17.4492 4.90031 16.6398C4.03681 15.8304 3.43267 14.7831 3.16424 13.6304C2.89581 12.4777 2.97516 11.2712 3.39224 10.1636C3.80933 9.05597 4.54543 8.09684 5.5075 7.40747C6.46958 6.7181 7.61443 6.32943 8.79736 6.29058C9.58349 6.26476 10.367 6.39414 11.1031 6.67132C11.8392 6.94851 12.5135 7.36805 13.0873 7.90598C13.6612 8.4439 14.1234 9.08966 14.4475 9.80633C14.7716 10.523 14.9513 11.2965 14.9763 12.0827Z" fill="black"/>
<path d="M40.9943 10.9111C41.0653 13.1389 40.4742 15.3377 39.2956 17.2295C38.1171 19.1213 36.4041 20.6212 34.3732 21.5395C32.3423 22.4578 30.0847 22.7534 27.8858 22.3887C25.687 22.0241 23.6456 21.0156 22.0199 19.4909C20.3941 17.9662 19.2569 15.9936 18.7522 13.8227C18.2474 11.6517 18.3976 9.3798 19.184 7.29423C19.9703 5.20866 21.3573 3.40306 23.1697 2.10574C24.9822 0.808414 27.1385 0.0776183 29.3663 0.00575139C32.3543 -0.0896739 35.2578 1.00558 37.4384 3.05065C39.619 5.09572 40.8981 7.92314 40.9943 10.9111Z" fill="#F4F4F4"/>
<path d="M30.4319 12.0827C30.4695 13.2656 30.1556 14.4332 29.5298 15.4378C28.904 16.4424 27.9944 17.2389 26.916 17.7266C25.8376 18.2143 24.6388 18.3714 23.4711 18.178C22.3035 17.9845 21.2194 17.4492 20.3559 16.6398C19.4924 15.8304 18.8883 14.7831 18.6198 13.6304C18.3514 12.4777 18.4308 11.2712 18.8478 10.1636C19.2649 9.05597 20.001 8.09684 20.9631 7.40747C21.9252 6.7181 23.07 6.32943 24.253 6.29058C25.0391 6.26476 25.8226 6.39414 26.5587 6.67132C27.2948 6.94851 27.9691 7.36805 28.5429 7.90598C29.1168 8.4439 29.579 9.08966 29.9031 9.80633C30.2272 10.523 30.4069 11.2965 30.4319 12.0827Z" fill="black"/>
</svg>
