<svg width="522" height="58" viewBox="0 0 522 58" fill="none" xmlns="http://www.w3.org/2000/svg">
<path d="M13.8945 5.07422V6.8125C13.8945 9 13.8945 11.4707 13.25 15.25L11.6875 15.0938C12.3906 11.5391 12.3906 8.94141 12.3906 6.8125V6.34375H1.92188V5.07422H13.8945ZM0.203125 18.0234V16.7539H16.0234V18.0234H0.203125ZM31.8633 3.21875V20.6211H30.3398V11.1875H26.9609V9.89844H30.3398V3.21875H31.8633ZM18.0938 6.10938V4.83984H25.9062V10.9141H19.6758V15.1328C22.6738 15.1328 24.8418 15.0352 27.3711 14.5664L27.4883 15.8555C24.8809 16.3242 22.625 16.4316 19.4805 16.4414H18.1523V9.64453H24.4219V6.10938H18.0938ZM51.0234 10.1523V11.4414H48.2109V20.582H46.6875V3.21875H48.2109V10.1523H51.0234ZM35.4961 16.168V4.9375H37.0195V14.8789C39.5586 14.8789 42.1465 14.6836 45.0078 14.0781L45.2031 15.3867C42.2051 15.9922 39.5098 16.168 36.8828 16.168H35.4961ZM72.1562 3.08203V20.7383H70.0859V11.7344H68.0938V19.8398H66.1016V3.41406H68.0938V9.99609H70.0859V3.08203H72.1562ZM57.5078 16.6172V5.17188H64.1094V6.92969H59.6953V14.7812C61.6094 14.7617 63.1914 14.6641 64.9883 14.332L65.1445 16.1094C63.0059 16.5391 61.1602 16.5977 58.6992 16.6172H57.5078ZM90.3594 13.3555V15.0742H83.3281V20.7383H81.1797V15.0742H74.2266V13.3555H90.3594ZM76.1797 11.5195V3.78516H78.3281V5.95312H86.2188V3.78516H88.4062V11.5195H76.1797ZM78.3281 9.76172H86.2188V7.67188H78.3281V9.76172ZM107.645 12.2227V13.9609H100.828V17.0078H98.6797V13.9609H91.5117V12.2227H107.645ZM93.4648 20.3867V15.5234H95.6133V18.6289H105.867V20.3867H93.4648ZM93.6211 10.8359V3.64844H95.7695V5.64062H103.387V3.64844H105.535V10.8359H93.6211ZM95.7695 9.11719H103.387V7.26172H95.7695V9.11719ZM114.539 4.3125C117.342 4.30273 119.383 6.07031 119.402 8.57031C119.383 11.0801 117.342 12.8379 114.539 12.8477C111.766 12.8379 109.686 11.0801 109.695 8.57031C109.686 6.07031 111.766 4.30273 114.539 4.3125ZM108.895 15.2891C112.078 15.2891 116.482 15.25 120.301 14.7031L120.477 16.2852C116.521 17.0371 112.283 17.0664 109.168 17.0664L108.895 15.2891ZM111.844 8.57031C111.834 10.0449 112.996 10.9531 114.539 10.9531C116.102 10.9531 117.264 10.0449 117.273 8.57031C117.264 7.10547 116.111 6.1875 114.539 6.1875C112.996 6.1875 111.834 7.10547 111.844 8.57031ZM121.355 20.7578V3.08203H123.523V20.7578H121.355ZM145.594 3.08203V20.7383H143.406V3.08203H145.594ZM130.965 15.875C135.594 13.6777 137.723 10.6895 138.113 6.67578H131.863V4.95703H140.32C140.32 10.2109 138.279 14.6738 132.098 17.6133L130.965 15.875ZM153.035 3.86328C155.32 3.85352 157.117 5.17188 157.557 7.10547H160.75V3.08203H162.918V12.5547H160.75V8.86328H157.576C157.156 10.8457 155.34 12.1836 153.035 12.1836C150.33 12.1836 148.367 10.4453 148.367 8.00391C148.367 5.5918 150.33 3.85352 153.035 3.86328ZM150.438 8.00391C150.438 9.41992 151.512 10.3574 153.035 10.3477C154.52 10.3574 155.584 9.41992 155.594 8.00391C155.584 6.58789 154.52 5.66992 153.035 5.67969C151.512 5.66992 150.438 6.58789 150.438 8.00391ZM151.277 20.5234V13.375H153.426V15.25H160.75V13.375H162.918V20.5234H151.277ZM153.426 18.7656H160.75V16.9297H153.426V18.7656ZM181.512 12.2031V13.9414H165.418V12.2031H181.512ZM167.078 7.22266C167.078 4.98633 169.588 3.63867 173.445 3.64844C177.293 3.63867 179.803 4.98633 179.812 7.22266C179.803 9.46875 177.293 10.8359 173.445 10.8359C169.588 10.8359 167.078 9.46875 167.078 7.22266ZM167.41 20.3867V15.25H169.578V18.6289H179.695V20.3867H167.41ZM169.344 7.22266C169.324 8.42383 170.877 9.06836 173.445 9.05859C176.023 9.06836 177.566 8.42383 177.566 7.22266C177.566 6.06055 176.023 5.38672 173.445 5.38672C170.877 5.38672 169.324 6.06055 169.344 7.22266ZM192.195 4.37109C194.852 4.37109 196.766 6.79297 196.785 10.6016C196.766 14.4395 194.852 16.8516 192.195 16.8516C189.51 16.8516 187.596 14.4395 187.605 10.6016C187.596 6.79297 189.51 4.37109 192.195 4.37109ZM189.695 10.6016C189.686 13.3164 190.711 14.8887 192.195 14.8984C193.689 14.8887 194.686 13.3164 194.695 10.6016C194.686 7.90625 193.689 6.32422 192.195 6.32422C190.711 6.32422 189.686 7.90625 189.695 10.6016ZM199.109 20.7383V3.08203H201.277V9.85938H203.992V11.6953H201.277V20.7383H199.109ZM211.434 6.14844C211.434 8.32617 212.938 10.5039 215.75 11.3828L214.637 13.0625C212.635 12.418 211.18 11.0898 210.369 9.41016C209.578 11.2363 208.074 12.6914 205.984 13.3945L204.871 11.7148C207.713 10.7578 209.227 8.46289 209.246 6.14844V5.93359H205.438V4.19531H215.145V5.93359H211.434V6.14844ZM207.391 16.3047V14.5469H219.441V20.7383H217.254V16.3047H207.391ZM217.254 13.7266V3.08203H219.441V13.7266H217.254ZM236.355 11.1094V12.8281H231.121V16.8711H238.152V18.6484H222.02V16.8711H228.973V12.8281H223.973V4.39062H236.219V6.12891H226.141V11.1094H236.355ZM257.879 3.08203V9.85938H260.594V11.6758H257.879V20.7578H255.73V3.08203H257.879ZM244.754 6.38281V4.625H252.879V11.2852H246.941V14.8008C249.744 14.7812 251.922 14.6641 254.383 14.2344L254.578 15.9922C251.854 16.4805 249.451 16.5977 246.238 16.5977H244.793V9.54688H250.711V6.38281H244.754ZM276.434 3.10156V12.2812H274.363V3.10156H276.434ZM262.02 11.5977V4.09766H264.07V6.16797H266.98V4.09766H268.992V6.89062H270.809V3.43359H272.84V12.1836H270.809V8.64844H268.992V11.5977H262.02ZM264.07 9.91797H266.98V7.78906H264.07V9.91797ZM264.48 14.6836V13.0039H276.434V17.5156H266.688V18.9023H277.059V20.582H264.5V15.9141H274.266V14.6836H264.48ZM286.648 3.35547C290.672 3.36523 293.006 4.42969 293.016 6.38281C293.006 8.35547 290.672 9.41992 286.648 9.42969C282.635 9.41992 280.281 8.35547 280.281 6.38281C280.281 4.42969 282.635 3.36523 286.648 3.35547ZM278.621 12.1055V10.3672H294.715V12.1055H278.621ZM280.516 14.8984V13.2969H292.703V17.6133H282.664V18.9219H293.191V20.582H280.535V16.0703H290.574V14.8984H280.516ZM282.566 6.38281C282.557 7.35938 283.963 7.80859 286.648 7.80859C289.373 7.80859 290.77 7.35938 290.77 6.38281C290.77 5.47461 289.373 4.95703 286.648 4.95703C283.963 4.95703 282.557 5.47461 282.566 6.38281ZM316.746 11.4219V13.1602H312.723V14.9961H314.773V20.7383H312.605V16.6953H302.43V14.9961H304.617V13.1602H300.652V11.4219H316.746ZM302.312 6.89062C302.312 4.76172 304.812 3.45312 308.68 3.45312C312.557 3.45312 315.037 4.76172 315.047 6.89062C315.037 9.04883 312.557 10.3477 308.68 10.3477C304.812 10.3477 302.312 9.04883 302.312 6.89062ZM304.578 6.89062C304.559 8.04297 306.102 8.6582 308.68 8.66797C311.258 8.6582 312.801 8.04297 312.801 6.89062C312.801 5.78711 311.258 5.15234 308.68 5.15234C306.102 5.15234 304.559 5.78711 304.578 6.89062ZM306.785 14.9961H310.574V13.1602H306.785V14.9961ZM331.863 3.08203V8.25781H334.324V10.0547H331.863V15.9922H329.695V3.08203H331.863ZM318.133 8.70703C318.123 6.09961 320.213 4.26367 322.898 4.25391C325.584 4.26367 327.645 6.09961 327.664 8.70703C327.645 11.2754 325.584 13.1406 322.898 13.1406C320.213 13.1406 318.123 11.2754 318.133 8.70703ZM320.262 8.70703C320.252 10.2305 321.424 11.2363 322.898 11.2266C324.393 11.2363 325.525 10.2305 325.535 8.70703C325.525 7.14453 324.393 6.14844 322.898 6.14844C321.424 6.14844 320.252 7.14453 320.262 8.70703ZM320.555 20.3867V14.6445H322.723V18.6289H332.566V20.3867H320.555ZM343.25 4.07812C346.971 4.07812 349.842 6.06055 349.832 9.05859C349.842 12.0957 346.971 14.0781 343.25 14.0781C339.549 14.0781 336.697 12.0957 336.707 9.05859C336.697 6.06055 339.549 4.07812 343.25 4.07812ZM335.223 18.5117V16.7344H351.355V18.5117H335.223ZM338.797 9.05859C338.787 11.0605 340.682 12.291 343.25 12.3008C345.828 12.291 347.703 11.0605 347.703 9.05859C347.703 7.10547 345.828 5.81641 343.25 5.83594C340.682 5.81641 338.787 7.10547 338.797 9.05859ZM368.641 16.8906V18.6875H352.508V16.8906H359.461V14.0195H354.422V8.23828H364.578V6.05078H354.383V4.29297H366.727V9.95703H356.59V12.2422H367.137V14.0195H361.609V16.8906H368.641ZM389.227 3.08203V20.7578H387.039V3.08203H389.227ZM375.477 16.5977V4.52734H377.645V8.94141H381.922V4.52734H384.07V16.5977H375.477ZM377.645 14.8203H381.922V10.6406H377.645V14.8203ZM406.297 4.70312V6.5C406.297 8.69727 406.297 11.0605 405.652 14.5273L403.523 14.3125C404.129 11.041 404.129 8.63867 404.129 6.5V6.44141H393.445V4.70312H406.297ZM391.824 18.4531V16.6758H395.438V11.0508H397.605V16.6758H399.852V11.0508H401.98V16.6758H407.918V18.4531H391.824ZM422.664 3.21875V10.3867H425.574V11.6562H422.664V20.582H421.141V3.21875H422.664ZM409.129 7.28125V6.01172H413.602V3.43359H415.125V6.01172H419.461V7.28125H409.129ZM410.125 12.7109C410.115 10.3672 411.912 8.72656 414.383 8.72656C416.834 8.72656 418.621 10.3672 418.641 12.7109C418.621 15.0645 416.834 16.6953 414.383 16.6953C411.912 16.6953 410.115 15.0645 410.125 12.7109ZM411.59 12.7109C411.58 14.293 412.762 15.4062 414.383 15.3867C415.984 15.4062 417.156 14.293 417.176 12.7109C417.156 11.1387 415.984 10.0059 414.383 10.0156C412.762 10.0059 411.58 11.1387 411.59 12.7109ZM440.438 4.97656V6.71484C440.418 8.84375 440.418 11.2266 439.793 14.7227L438.23 14.5469C438.885 11.2266 438.885 8.79492 438.895 6.71484V6.24609H428.191V4.97656H440.438ZM426.512 18.1211V16.8516H432.723V10.6406H434.227V16.8516H442.332V18.1211H426.512ZM454.695 14.8789C454.686 16.4121 455.516 18.043 457.166 18.9805C458.826 17.9551 459.705 16.2168 459.695 14.8789V13.9219H461.199V14.8789C461.189 16.666 462.508 18.4434 464.734 19.2148L463.973 20.3477C462.234 19.7324 461.023 18.5215 460.418 17.0664C459.881 18.4727 458.816 19.8105 457.215 20.4844C455.525 19.8398 454.451 18.5703 453.934 17.1152C453.309 18.5117 452.117 19.7227 450.457 20.3477L449.676 19.2148C451.873 18.3945 453.191 16.5391 453.211 14.8789V13.9219H454.695V14.8789ZM449.227 8.31641C449.217 5.89453 451.141 4.24414 453.777 4.25391C456.414 4.24414 458.318 5.89453 458.328 8.31641C458.318 10.6992 456.414 12.3398 453.777 12.3398C451.141 12.3398 449.217 10.6992 449.227 8.31641ZM450.73 8.31641C450.711 9.92773 451.99 11.0605 453.777 11.0703C455.545 11.0605 456.824 9.92773 456.824 8.31641C456.824 6.69531 455.545 5.54297 453.777 5.5625C451.99 5.54297 450.711 6.69531 450.73 8.31641ZM461.629 13.1602V3.23828H463.152V13.1602H461.629ZM469.637 13.6484V15.6797H478.309V13.6484H479.852V20.3477H468.113V13.6484H469.637ZM466.102 12.418V11.1484H481.922V12.418H466.102ZM467 8.6875C470.096 8.26758 473.23 6.44141 473.23 4.23438V3.41406H474.812V4.23438C474.803 6.37305 477.967 8.29688 481.023 8.6875L480.457 9.91797C477.771 9.51758 475.125 8.15039 474.021 6.20703C472.918 8.16016 470.262 9.51758 467.586 9.91797L467 8.6875ZM469.637 19.1172H478.309V16.8906H469.637V19.1172ZM497.703 3.21875V20.582H496.18V3.21875H497.703ZM484.52 16.1094V4.9375H486.023V14.7812C488.68 14.7617 491.414 14.5566 494.324 13.9414L494.539 15.25C491.453 15.8945 488.709 16.1094 485.926 16.1094H484.52ZM514.109 3.21875V10.0938H517.02V11.3828H514.109V20.6211H512.586V3.21875H514.109ZM501.434 16.2656V4.91797H509.539V6.1875H502.957V14.9766C506.102 14.9668 508.318 14.8301 510.906 14.3516L511.102 15.6797C508.377 16.168 506.102 16.2656 502.801 16.2656H501.434ZM519.793 19.1172C519.109 19.1074 518.523 18.541 518.543 17.8477C518.523 17.1641 519.109 16.5977 519.793 16.5977C520.486 16.5977 521.053 17.1641 521.043 17.8477C521.053 18.541 520.486 19.1074 519.793 19.1172Z" fill="#404040"/>
<path d="M48.3945 39.0742V40.8125C48.3945 43 48.3945 45.4707 47.75 49.25L46.1875 49.0938C46.8906 45.5391 46.8906 42.9414 46.8906 40.8125V40.3438H36.4219V39.0742H48.3945ZM34.7031 52.0234V50.7539H50.5234V52.0234H34.7031ZM59.0781 39.1133V45.1875H54.0586V49.1328C56.0605 49.123 57.9453 49.0449 60.1914 48.6641L60.3281 49.9141C57.8574 50.3438 55.8945 50.4219 53.707 50.4219H52.5742V43.918H57.5938V40.4023H52.5352V39.1133H59.0781ZM61.4023 53.6836V37.6094H62.8086V44.0938H65.3672V37.2188H66.832V54.582H65.3672V45.3633H62.8086V53.6836H61.4023ZM75.3867 41.8867C75.377 45.0312 77.3984 48.1953 79.918 49.3477L79 50.5977C77.0273 49.582 75.3965 47.5117 74.625 45.041C73.8535 47.6387 72.2227 49.8652 70.25 50.9102L69.2539 49.6797C71.8027 48.4297 73.8145 45.0898 73.8242 41.8867V38.7227H75.3867V41.8867ZM78.0234 44.4062V43.1562H82.1445V37.2188H83.668V54.6211H82.1445V44.4062H78.0234ZM105.934 37.2188V46.2422H104.391V37.2188H105.934ZM91.8711 44.3477C92.5645 44.3477 93.3164 44.3379 94.0977 44.3281V39.6406H92.3594V38.4102H101.754V39.6406H99.9961V44.0938C100.895 44.0254 101.773 43.9375 102.613 43.8398L102.691 44.9727C99.2148 45.4902 95.1328 45.627 92.0664 45.6172L91.8711 44.3477ZM94.5664 48.3125V47.082H105.934V51.2227H96.1289V53.1367H106.598V54.3867H94.625V50.0703H104.41V48.3125H94.5664ZM95.582 44.2988C96.5391 44.2695 97.5254 44.2402 98.5117 44.1816V39.6406H95.582V44.2988ZM124.762 51.0664V52.3555H108.863V51.0664H112.809V46.3887C111.324 45.6172 110.426 44.3672 110.426 42.7852C110.426 40.0996 113.062 38.332 116.773 38.3125C120.484 38.332 123.121 40.0996 123.121 42.7852C123.121 44.3379 122.252 45.5684 120.816 46.3398V51.0664H124.762ZM111.91 42.7852C111.9 44.7285 113.922 46.0273 116.773 46.0273C119.596 46.0273 121.637 44.7285 121.637 42.7852C121.637 40.8418 119.596 39.5625 116.773 39.582C113.922 39.5625 111.9 40.8418 111.91 42.7852ZM114.312 51.0664H119.273V46.9355C118.521 47.1309 117.682 47.2383 116.773 47.2383C115.885 47.2383 115.055 47.1406 114.312 46.9453V51.0664ZM139.723 37.2383V42.9609H142.34V44.25H139.723V50.2461H138.199V37.2383H139.723ZM126.188 40.6172V39.3672H130.602V37.2383H132.125V39.3672H136.539V40.6172H126.188ZM127.184 44.8164C127.174 42.8438 128.854 41.5742 131.363 41.5742C133.844 41.5742 135.523 42.8438 135.543 44.8164C135.523 46.7695 133.844 48.0293 131.363 48.0195C128.854 48.0293 127.174 46.7695 127.184 44.8164ZM128.648 44.8164C128.639 46.0371 129.723 46.8281 131.363 46.8086C132.984 46.8281 134.078 46.0371 134.098 44.8164C134.078 43.5762 132.984 42.7754 131.363 42.7852C129.723 42.7754 128.639 43.5762 128.648 44.8164ZM128.863 54.2109V49.2109H130.367V52.9219H140.523V54.2109H128.863ZM162.848 37.2383V50.0703H161.305V43.8789H157.457V42.5898H161.305V37.2383H162.848ZM148.727 46.8086C152.721 45.4902 155.504 42.9902 155.855 39.8555H149.605V38.5664H157.535C157.516 43.0293 154.322 46.4277 149.391 48.0391L148.727 46.8086ZM151.793 54.2109V48.7617H153.355V52.9219H163.297V54.2109H151.793ZM168.59 51.6914L167.066 57.0039H165.621L166.695 51.6914H168.59ZM446.031 37.2188V46.5352H444.508V37.2188H446.031ZM432.105 42.0625C432.096 39.6895 434.02 38.0586 436.656 38.0781C439.293 38.0586 441.197 39.6895 441.207 42.0625C441.197 44.4258 439.293 46.0566 436.656 46.0469C434.02 46.0566 432.096 44.4258 432.105 42.0625ZM433.609 42.0625C433.59 43.6445 434.869 44.7676 436.656 44.7773C438.424 44.7676 439.703 43.6445 439.703 42.0625C439.703 40.4707 438.424 39.3574 436.656 39.3672C434.869 39.3574 433.59 40.4707 433.609 42.0625ZM434.781 54.3477V47.4141H436.305V49.5234H444.508V47.4141H446.031V54.3477H434.781ZM436.305 53.0977H444.508V50.7539H436.305V53.0977ZM463.297 37.2188V54.582H461.773V37.2188H463.297ZM450.113 50.1094V38.9375H451.617V48.7812C454.273 48.7617 457.008 48.5566 459.918 47.9414L460.133 49.25C457.047 49.8945 454.303 50.1094 451.52 50.1094H450.113ZM479.703 37.2188V44.0938H482.613V45.3828H479.703V54.6211H478.18V37.2188H479.703ZM467.027 50.2656V38.918H475.133V40.1875H468.551V48.9766C471.695 48.9668 473.912 48.8301 476.5 48.3516L476.695 49.6797C473.971 50.168 471.695 50.2656 468.395 50.2656H467.027ZM485.387 53.1172C484.703 53.1074 484.117 52.541 484.137 51.8477C484.117 51.1641 484.703 50.5977 485.387 50.5977C486.08 50.5977 486.646 51.1641 486.637 51.8477C486.646 52.541 486.08 53.1074 485.387 53.1172Z" fill="#404040"/>
<path d="M189.723 37.0234V43.7422H192.34V45.793H189.723V54.8359H187.262V37.0234H189.723ZM176.422 40.5195V38.5078H184.645V45.4023H178.922V48.625C181.51 48.6152 183.648 48.498 186.012 48.0977L186.227 50.0898C183.512 50.5879 181.07 50.6953 177.945 50.6953H176.441V43.4297H182.164V40.5195H176.422ZM208.258 37.043V46.2227H205.895V37.043H208.258ZM193.609 45.6367V38.0195H195.973V39.9531H198.395V38.0195H200.699V40.7539H202.281V37.3359H204.586V46.1445H202.281V42.7461H200.699V45.6367H193.609ZM195.973 43.7227H198.395V41.8086H195.973V43.7227ZM196.09 48.8203V46.9062H208.258V51.6328H198.629V52.7656H208.863V54.6797H196.109V49.8164H205.758V48.8203H196.09ZM218.375 37.2773C222.467 37.2773 224.83 38.3516 224.84 40.3047C224.83 42.2871 222.467 43.3516 218.375 43.3516C214.273 43.3516 211.891 42.2871 211.891 40.3047C211.891 38.3516 214.273 37.2773 218.375 37.2773ZM210.27 46.1641V44.1914H226.48V46.1641H210.27ZM212.145 49.0156V47.1992H224.508V51.7305H214.605V52.8047H224.977V54.6797H212.164V49.9922H222.047V49.0156H212.145ZM214.508 40.3047C214.498 41.1738 215.768 41.5156 218.375 41.5156C221.002 41.5156 222.262 41.1738 222.262 40.3047C222.262 39.5137 221.002 39.0938 218.375 39.0938C215.768 39.0938 214.498 39.5137 214.508 40.3047ZM238.727 41.8672C238.717 44.5723 240.162 47.6973 243.082 49.0547L241.695 51.0078C239.713 50.0996 238.307 48.2832 237.506 46.1543C236.715 48.498 235.25 50.4902 233.199 51.457L231.754 49.4844C234.713 48.1074 236.207 44.8066 236.227 41.8672V40.7734H232.457V38.7422H242.301V40.7734H238.727V41.8672ZM243.688 54.7969V37.0234H246.188V43.8008H248.805V45.8906H246.188V54.7969H243.688ZM265.699 45.4219V47.375H249.449V45.4219H256.363V43.8984H251.422V37.8047H263.746V39.7383H253.902V41.9453H263.844V43.8984H258.805V45.4219H265.699ZM251.305 51.5547C251.305 49.4453 253.648 48.2734 257.535 48.2734C261.393 48.2734 263.707 49.4453 263.727 51.5547C263.707 53.6348 261.393 54.8164 257.535 54.8164C253.648 54.8164 251.305 53.6348 251.305 51.5547ZM253.844 51.5547C253.834 52.4824 255.074 52.9219 257.535 52.9219C259.947 52.9219 261.217 52.4824 261.227 51.5547C261.217 50.6367 259.947 50.168 257.535 50.168C255.074 50.168 253.834 50.6367 253.844 51.5547ZM274.84 37.9219C278.59 37.9316 281.529 39.9629 281.539 43.0391C281.529 46.1445 278.59 48.166 274.84 48.1562C271.08 48.166 268.16 46.1445 268.16 43.0391C268.16 39.9629 271.08 37.9316 274.84 37.9219ZM266.734 52.6289V50.6172H283.004V52.6289H266.734ZM270.582 43.0391C270.572 44.9727 272.369 46.125 274.84 46.125C277.291 46.125 279.068 44.9727 279.078 43.0391C279.068 41.1348 277.291 39.9336 274.84 39.9531C272.369 39.9336 270.572 41.1348 270.582 43.0391ZM300.289 50.7734V52.8242H284.02V50.7734H290.875V48.0977H285.895V42.1211H295.953V40.168H285.875V38.1758H298.414V44.0742H288.395V46.0664H298.824V48.0977H293.355V50.7734H300.289ZM320.797 37.0234V54.8359H318.277V37.0234H320.797ZM306.793 50.6758V38.4297H309.293V42.7656H313.121V38.4297H315.582V50.6758H306.793ZM309.293 48.6641H313.121V44.6992H309.293V48.6641ZM337.945 38.5664V40.3047C337.936 42.4727 337.936 44.9043 337.281 48.4883L334.84 48.2734C335.416 45.0117 335.436 42.5996 335.445 40.5391H324.801V38.5664H337.945ZM323.199 52.6289V50.5977H326.656V45.0117H329.137V50.5977H331.09V45.0117H333.551V50.5977H339.41V52.6289H323.199ZM349.059 39.7383V41.7109H340.465V39.7383H343.551V37.5117H346.012V39.7383H349.059ZM340.875 46.7305C340.875 44.2598 342.535 42.5215 344.801 42.5117C347.076 42.5215 348.697 44.2598 348.707 46.7305C348.697 49.2109 347.076 50.9688 344.801 50.9688C342.535 50.9688 340.875 49.2109 340.875 46.7305ZM343.062 46.7305C343.062 48.0879 343.766 48.8594 344.801 48.8594C345.797 48.8594 346.51 48.0879 346.52 46.7305C346.51 45.3926 345.797 44.582 344.801 44.582C343.766 44.582 343.062 45.3926 343.062 46.7305ZM349.723 54.0352V37.375H352.047V44.25H353.492V37.0234H355.855V54.7969H353.492V46.2422H352.047V54.0352H349.723ZM373.98 46.8281V48.8203H367.066V54.7969H364.605V48.8203H357.77V46.8281H373.98ZM358.57 43.8398C362.164 43.4004 364.156 41.6621 364.42 39.9141H359.234V37.9609H372.535V39.9141H367.35C367.604 41.6621 369.566 43.4004 373.219 43.8398L372.32 45.793C369.195 45.373 366.959 44.0449 365.885 42.2188C364.801 44.0449 362.584 45.373 359.488 45.793L358.57 43.8398ZM389.488 41.8672V43.8203H377.066V37.6484H379.547V41.8672H389.488ZM375.035 47.6875V45.7344H391.305V47.6875H375.035ZM376.91 54.4062V49.1328H379.41V52.4141H389.605V54.4062H376.91ZM411.441 44.9727V46.9453H406.285V50.7344H413.219V52.7656H396.949V50.7344H403.805V46.9453H398.863V38.2734H411.305V40.2656H401.363V44.9727H411.441ZM428.551 38.0586V39.6602C428.541 41.3203 428.541 43.127 428.092 45.6172H430.445V47.6289H423.512V54.8164H421.012V47.6289H414.234V45.6172H425.562C426.021 43.332 426.061 41.584 426.07 40.0508H416.09V38.0586H428.551Z" fill="#3F7CEA"/>
</svg>
