<svg width="318" height="42" viewBox="0 0 318 42" fill="none" xmlns="http://www.w3.org/2000/svg">
<rect width="318" height="33" rx="16.5" fill="#3F7CEA"/>
<path d="M23.8984 10.9531V15.793H25.9355V16.6953H23.8984V23.1348H22.832V10.9531H23.8984ZM14.9707 12.9766V12.0879H20.4941V16.4355H16.0645V19.2793C18.3203 19.2861 19.8994 19.1973 21.7383 18.8555L21.8477 19.7441C19.9336 20.0928 18.3135 20.1816 15.9688 20.1953H14.998V15.5469H19.4277V12.9766H14.9707ZM36.9141 10.9668V17.3652H35.8887V10.9668H36.9141ZM27.1523 16.7773V11.6777H28.1641V13.291H30.8711V11.6777H31.8828V13.7148H33.4961V11.2129H34.5078V17.2969H33.4961V14.6172H31.8828V16.7773H27.1523ZM28.1641 15.9297H30.8711V14.125H28.1641V15.9297ZM28.8477 18.8008V17.9531H36.9141V20.7969H29.9414V22.1094H37.4062V22.9707H28.875V19.9766H35.8613V18.8008H28.8477ZM48.4805 11.7461C48.4736 14.7949 46.293 16.9824 42.793 17.9805L42.3418 17.1328C45.2471 16.3125 47.1064 14.6992 47.3389 12.6348H42.9707V11.7461H48.4805ZM44.3926 22.9434V18.418H52.2812V22.9434H44.3926ZM45.4316 22.0684H51.2148V19.2793H45.4316V22.0684ZM48.5078 15V14.0977H51.2012V10.9668H52.2812V17.8984H51.2012V15H48.5078ZM60.4023 12.0879C60.4092 13.8037 62.6377 15.2803 64.832 15.5879L64.3945 16.4629C62.5078 16.1484 60.6348 15.1025 59.8555 13.6123C59.0762 15.1162 57.21 16.1484 55.3164 16.4629L54.8789 15.5879C57.0732 15.2803 59.2949 13.8311 59.2949 12.0879V11.3906H60.4023V12.0879ZM54.3047 18.7051V17.8027H65.3789V18.7051H60.3477V23.1074H59.2949V18.7051H54.3047ZM79.9395 10.9531V17.2559H78.8867V10.9531H79.9395ZM70 16.2852C71.832 15.6494 73.1309 14.0225 73.1309 12.2383V11.3086H74.2246V12.2383C74.2109 13.9541 75.5234 15.4717 77.3281 16.0664L76.7949 16.9004C75.3662 16.415 74.2383 15.3965 73.6914 14.084C73.1445 15.499 72.0029 16.6133 70.5605 17.1328L70 16.2852ZM72.0508 18.7324V17.8711H79.9531V20.7832H73.1309V22.0957H80.3906V22.9707H72.0781V19.9492H78.8867V18.7324H72.0508ZM88.1152 12.0879C88.1221 13.8037 90.3506 15.2803 92.5449 15.5879L92.1074 16.4629C90.2207 16.1484 88.3477 15.1025 87.5684 13.6123C86.7891 15.1162 84.9229 16.1484 83.0293 16.4629L82.5918 15.5879C84.7861 15.2803 87.0078 13.8311 87.0078 12.0879V11.3906H88.1152V12.0879ZM82.0176 18.7051V17.8027H93.0918V18.7051H88.0605V23.1074H87.0078V18.7051H82.0176ZM96.1133 21.084L95.0469 24.8027H94.0352L94.7871 21.084H96.1133ZM111.262 10.9531V23.1074H110.182V10.9531H111.262ZM101.363 19.9492C104.651 18.3906 106.333 16.0596 106.572 13.1543H101.924V12.2793H107.666C107.652 15.7725 106.025 18.8691 101.951 20.8242L101.363 19.9492ZM116.662 11.5273C118.289 11.5205 119.533 12.4707 119.766 13.8652H122.309V10.9531H123.389V17.4746H122.309V14.7539H119.772C119.561 16.1895 118.31 17.1465 116.662 17.1465C114.81 17.1465 113.497 15.998 113.504 14.3301C113.497 12.6826 114.81 11.5205 116.662 11.5273ZM114.529 14.3301C114.529 15.4375 115.411 16.2373 116.662 16.2441C117.886 16.2373 118.768 15.4375 118.768 14.3301C118.768 13.209 117.886 12.4297 116.662 12.4434C115.411 12.4297 114.529 13.209 114.529 14.3301ZM115.555 22.9434V18.0898H116.635V19.6348H122.309V18.0898H123.389V22.9434H115.555ZM116.635 22.0684H122.309V20.4961H116.635V22.0684ZM135.83 10.9531V23.1074H134.791V10.9531H135.83ZM125.562 16.2031C125.569 13.6191 126.595 11.9854 128.174 11.9785C129.65 11.9854 130.648 13.4072 130.785 15.6973H132.357V11.2129H133.383V22.4922H132.357V16.5859H130.792C130.689 18.9512 129.671 20.4346 128.174 20.4277C126.595 20.4346 125.569 18.7871 125.562 16.2031ZM126.574 16.2031C126.561 18.1719 127.189 19.416 128.174 19.4023C129.165 19.416 129.794 18.1719 129.787 16.2031C129.794 14.2275 129.165 12.9902 128.174 12.9902C127.189 12.9902 126.561 14.2275 126.574 16.2031ZM150.691 11.6094V12.6348C150.691 13.8037 150.691 15.1094 150.356 16.9414H152.141V17.8301H141.025V16.9414H149.27C149.427 16.1621 149.516 15.4717 149.563 14.8428L142.283 15.1777L142.146 14.2617L149.611 14.0361C149.632 13.5371 149.625 13.0723 149.625 12.6348V12.498H142.434V11.6094H150.691ZM142.434 22.8477V19.0469H143.514V21.9453H150.951V22.8477H142.434ZM166.482 21.9453V22.8477H158.074V19.3477H159.154V21.9453H166.482ZM156.639 18.377V17.4746H161.643V15.4102H162.695V17.4746H167.754V18.377H156.639ZM157.363 15.3555C159.489 15 161.629 13.5371 161.629 11.8281V11.2812H162.709V11.8281C162.709 13.5508 164.849 15.0205 166.975 15.3555L166.551 16.2031C164.719 15.8545 162.928 14.8223 162.176 13.3457C161.424 14.8223 159.633 15.8613 157.801 16.2031L157.363 15.3555ZM178.76 10.9531V17.2559H177.707V10.9531H178.76ZM168.82 16.2852C170.652 15.6494 171.951 14.0225 171.951 12.2383V11.3086H173.045V12.2383C173.031 13.9541 174.344 15.4717 176.148 16.0664L175.615 16.9004C174.187 16.415 173.059 15.3965 172.512 14.084C171.965 15.499 170.823 16.6133 169.381 17.1328L168.82 16.2852ZM170.871 18.7324V17.8711H178.773V20.7832H171.951V22.0957H179.211V22.9707H170.898V19.9492H177.707V18.7324H170.871ZM186.375 11.1719C189.075 11.1719 190.661 11.917 190.668 13.2637C190.661 14.6445 189.075 15.3896 186.375 15.3965C183.661 15.3896 182.068 14.6445 182.068 13.2637C182.068 11.917 183.661 11.1719 186.375 11.1719ZM180.838 17.0918V16.2168H191.912V17.0918H180.838ZM182.178 18.9648V18.1445H190.49V20.8652H183.271V22.123H190.859V22.9707H182.205V20.0723H189.438V18.9648H182.178ZM183.189 13.2637C183.176 14.1113 184.358 14.5762 186.375 14.5762C188.392 14.5762 189.567 14.1113 189.574 13.2637C189.567 12.4639 188.392 11.9854 186.375 11.9785C184.358 11.9854 183.176 12.4639 183.189 13.2637ZM207.58 20.6738V21.5762H196.451V20.6738H201.469V17.8848H202.521V20.6738H207.58ZM197.066 17.4746C199.411 17.0986 201.441 15.6836 201.455 13.7832H197.49V12.8945H201.469V11.2129H202.521V12.8945H206.514V13.7832H202.549C202.549 15.6836 204.579 17.0986 206.91 17.4746L206.5 18.3223C204.559 17.9805 202.774 16.9961 201.995 15.4717C201.229 16.9961 199.445 17.9805 197.49 18.3223L197.066 17.4746ZM213.514 12.2793V16.5312H210V19.293C211.401 19.2861 212.721 19.2314 214.293 18.9648L214.389 19.8398C212.659 20.1406 211.285 20.1953 209.754 20.1953H208.961V15.6426H212.475V13.1816H208.934V12.2793H213.514ZM215.141 22.4785V11.2266H216.125V15.7656H217.916V10.9531H218.941V23.1074H217.916V16.6543H216.125V22.4785H215.141ZM230.152 10.9121V13.8652H231.998V14.7539H230.152V17.6387H229.086V10.9121H230.152ZM220.678 12.9219V12.0605H223.768V10.8301H224.834V12.0605H227.924V12.9219H220.678ZM221.375 15.4648C221.368 14.2344 222.53 13.4756 224.301 13.4688C226.064 13.4756 227.213 14.2344 227.227 15.4648C227.213 16.7021 226.064 17.4541 224.301 17.4609C222.53 17.4541 221.368 16.7021 221.375 15.4648ZM222.4 19.0742V18.2676H230.152V20.9609H223.48V22.1504H230.604V22.9707H222.428V20.168H229.086V19.0742H222.4ZM222.4 15.4648C222.394 16.1963 223.146 16.6543 224.301 16.6543C225.449 16.6543 226.201 16.1963 226.215 15.4648C226.201 14.7402 225.449 14.2686 224.301 14.2617C223.146 14.2686 222.394 14.7402 222.4 15.4648ZM242.361 12.0879C242.368 13.8037 244.597 15.2803 246.791 15.5879L246.354 16.4629C244.467 16.1484 242.594 15.1025 241.814 13.6123C241.035 15.1162 239.169 16.1484 237.275 16.4629L236.838 15.5879C239.032 15.2803 241.254 13.8311 241.254 12.0879V11.3906H242.361V12.0879ZM236.264 18.7051V17.8027H247.338V18.7051H242.307V23.1074H241.254V18.7051H236.264ZM255.992 19.1152C255.985 20.1885 256.566 21.3301 257.722 21.9863C258.884 21.2686 259.499 20.0518 259.492 19.1152V18.4453H260.545V19.1152C260.538 20.3662 261.461 21.6104 263.02 22.1504L262.486 22.9434C261.27 22.5127 260.422 21.665 259.998 20.6465C259.622 21.6309 258.877 22.5674 257.756 23.0391C256.573 22.5879 255.821 21.6992 255.459 20.6807C255.021 21.6582 254.188 22.5059 253.025 22.9434L252.479 22.1504C254.017 21.5762 254.939 20.2773 254.953 19.1152V18.4453H255.992V19.1152ZM252.164 14.5215C252.157 12.8262 253.504 11.6709 255.35 11.6777C257.195 11.6709 258.528 12.8262 258.535 14.5215C258.528 16.1895 257.195 17.3379 255.35 17.3379C253.504 17.3379 252.157 16.1895 252.164 14.5215ZM253.217 14.5215C253.203 15.6494 254.099 16.4424 255.35 16.4492C256.587 16.4424 257.482 15.6494 257.482 14.5215C257.482 13.3867 256.587 12.5801 255.35 12.5938C254.099 12.5801 253.203 13.3867 253.217 14.5215ZM260.846 17.9121V10.9668H261.912V17.9121H260.846ZM266.451 18.2539V19.6758H272.521V18.2539H273.602V22.9434H265.385V18.2539H266.451ZM263.977 17.3926V16.5039H275.051V17.3926H263.977ZM264.605 14.7812C266.772 14.4873 268.967 13.209 268.967 11.6641V11.0898H270.074V11.6641C270.067 13.1611 272.282 14.5078 274.422 14.7812L274.025 15.6426C272.146 15.3623 270.293 14.4053 269.521 13.0449C268.748 14.4121 266.889 15.3623 265.016 15.6426L264.605 14.7812ZM266.451 22.082H272.521V20.5234H266.451V22.082ZM286.098 10.9531V23.1074H285.031V10.9531H286.098ZM276.869 19.9766V12.1562H277.922V19.0469C279.781 19.0332 281.695 18.8896 283.732 18.459L283.883 19.375C281.723 19.8262 279.802 19.9766 277.854 19.9766H276.869ZM297.582 10.9531V15.7656H299.619V16.668H297.582V23.1348H296.516V10.9531H297.582ZM288.709 20.0859V12.1426H294.383V13.0312H289.775V19.1836C291.977 19.1768 293.528 19.0811 295.34 18.7461L295.477 19.6758C293.569 20.0176 291.977 20.0859 289.666 20.0859H288.709ZM301.561 22.082C301.082 22.0752 300.672 21.6787 300.686 21.1934C300.672 20.7148 301.082 20.3184 301.561 20.3184C302.046 20.3184 302.442 20.7148 302.436 21.1934C302.442 21.6787 302.046 22.0752 301.561 22.082Z" fill="white"/>
<path d="M157.745 40.0817C158.337 40.9867 159.663 40.9867 160.255 40.0817L164.842 33.0713C165.495 32.0737 164.779 30.75 163.587 30.75H154.413C153.221 30.75 152.505 32.0737 153.158 33.0713L157.745 40.0817Z" fill="#3F7CEA"/>
</svg>
