<svg width="457" height="49" viewBox="0 0 457 49" fill="none" xmlns="http://www.w3.org/2000/svg">
<path d="M36.5215 0.863281V19.0039H43.5879V24.541H36.5215V48.957H29.877V0.863281H36.5215ZM0.609375 10.3027V4.87109H22.8105V23.4863H7.35938V32.1875C14.3467 32.1611 20.1211 31.8447 26.502 30.7637L27.082 36.1426C19.752 37.4873 13.1602 37.7773 4.72266 37.7773H0.662109V18.1602H16.1133V10.3027H0.609375ZM86.5664 0.916016V25.7012H80.1855V0.916016H86.5664ZM47.0156 24.1191V3.55273H53.3965V8.77344H59.9355V3.55273H66.1582V10.9355H70.4297V1.70703H76.6523V25.4902H70.4297V16.3145H66.1582V24.1191H47.0156ZM53.3965 18.9512H59.9355V13.7832H53.3965V18.9512ZM53.7129 32.7148V27.5469H86.5664V40.3086H60.5684V43.3672H88.2012V48.5352H53.7656V35.4043H79.8164V32.7148H53.7129ZM113.883 1.54883C124.931 1.54883 131.312 4.44922 131.338 9.72266C131.312 15.0752 124.931 17.9492 113.883 17.9492C102.809 17.9492 96.375 15.0752 96.375 9.72266C96.375 4.44922 102.809 1.54883 113.883 1.54883ZM91.998 25.543V20.2168H135.768V25.543H91.998ZM97.0605 33.2422V28.3379H130.441V40.5723H103.705V43.4727H131.707V48.5352H97.1133V35.8789H123.797V33.2422H97.0605ZM103.441 9.72266C103.415 12.0693 106.843 12.9922 113.883 12.9922C120.976 12.9922 124.377 12.0693 124.377 9.72266C124.377 7.58691 120.976 6.45312 113.883 6.45312C106.843 6.45312 103.415 7.58691 103.441 9.72266ZM191.297 0.863281V48.957H184.494V0.863281H191.297ZM153.486 37.7246V4.66016H160.236V16.3672H170.572V4.66016H177.217V37.7246H153.486ZM160.236 32.293H170.572V21.5879H160.236V32.293ZM237.598 5.0293V9.72266C237.571 15.5762 237.571 22.1416 235.805 31.8184L229.213 31.2383C230.769 22.4316 230.821 15.9189 230.848 10.3555H202.107V5.0293H237.598ZM197.783 42.998V37.5137H207.117V22.4316H213.814V37.5137H219.088V22.4316H225.732V37.5137H241.553V42.998H197.783ZM282.316 0.863281V19.6367H289.383V25.1738H282.316V48.8516H275.672V0.863281H282.316ZM244.189 13.4141V8.03516H255.053V1.60156H261.803V8.03516H272.402V13.4141H244.189ZM246.141 27.5469C246.114 20.8496 251.335 16.0771 258.428 16.1035C265.415 16.0771 270.662 20.8496 270.662 27.5469C270.662 34.2441 265.415 38.9639 258.428 38.9902C251.335 38.9639 246.114 34.2441 246.141 27.5469ZM252.574 27.5469C252.574 31.2646 255.026 33.4795 258.428 33.4531C261.776 33.4795 264.229 31.2646 264.229 27.5469C264.229 23.8555 261.776 21.5879 258.428 21.5352C255.026 21.5879 252.574 23.8555 252.574 27.5469ZM309.791 11.7266C309.765 20.5332 313.772 29.3662 321.92 32.8203L317.965 38.1992C312.48 35.7207 308.684 30.9219 306.495 24.9893C304.333 31.4756 300.404 36.6963 294.551 39.3594L290.49 33.7695C298.875 30.2363 302.962 21.0342 302.988 11.7266V4.55469H309.791V11.7266ZM324.504 48.957V0.863281H331.307V48.957H324.504ZM382.459 19.0566V24.541H375.656V48.7461H368.906V0.863281H375.656V19.0566H382.459ZM339.322 37.0391V5.45117H346.02V31.4756C352.163 31.3701 358.755 30.79 365.689 29.3926L366.375 34.9824C358.333 36.6172 350.555 37.0391 343.488 37.0391H339.322ZM428.391 37.7246V43.2617H384.463V37.7246H394.271V25.9648C390.554 23.7236 388.312 20.3223 388.312 16.1035C388.312 8.3252 395.906 3.20996 406.348 3.18359C416.736 3.20996 424.409 8.3252 424.436 16.1035C424.409 20.2432 422.247 23.5918 418.635 25.833V37.7246H428.391ZM394.957 16.1035C394.957 20.7969 399.466 23.6973 406.348 23.6973C413.124 23.6973 417.765 20.7969 417.791 16.1035C417.765 11.2783 413.124 8.4834 406.348 8.50977C399.466 8.4834 394.957 11.2783 394.957 16.1035ZM400.916 37.7246H411.832V28.3906C410.118 28.7334 408.272 28.918 406.348 28.918C404.423 28.918 402.604 28.7334 400.916 28.417V37.7246ZM439.518 31.9766C439.544 25.4111 441.311 23.4072 444.475 21.4297C446.742 19.9531 448.509 18.3184 448.482 15.8926C448.509 13.2559 446.452 11.542 443.895 11.5156C441.442 11.542 439.148 13.1768 439.043 16.2617H431.555C431.687 8.85254 437.197 5.29297 443.947 5.29297C451.304 5.29297 456.498 9.11621 456.498 15.6289C456.498 19.9795 454.257 22.7217 450.803 24.8047C447.823 26.5713 446.505 28.2852 446.479 31.9766V32.5566H439.518V31.9766ZM438.727 40.0449C438.674 37.6191 440.678 35.6416 443.156 35.668C445.503 35.6416 447.533 37.6191 447.533 40.0449C447.533 42.4971 445.503 44.4746 443.156 44.4746C440.678 44.4746 438.674 42.4971 438.727 40.0449Z" fill="#101010"/>
</svg>
